<?xml version="1.0" encoding="UTF-8" standalone="no"?>
<!-- Uploaded to: SVG Repo, www.svgrepo.com, Generator: SVG Repo Mixer Tools -->

<svg
   width="15.928863"
   height="15.733097"
   viewBox="0 0 0.47786587 0.47199292"
   fill="none"
   version="1.1"  
   xmlns="http://www.w3.org/2000/svg" 
   >
  <path
     d="m 0.09135926,0.21406023 c 0,-0.0618487 0,-0.092773 0.02162194,-0.11198689 0.021622,-0.01921399 0.0564217,-0.01921399 0.12602141,-0.01921399 h 0.0738216 c 0.069599,0 0.10439858,0 0.12602093,0.01921399 0.0216224,0.019214 0.0216224,0.0501382 0.0216224,0.11198689 v 0.10933401 c 0,0.061848 0,0.0927721 -0.0216224,0.11198643 -0.0216224,0.0192145 -0.0564219,0.0192145 -0.12602093,0.0192145 h -0.0738217 c -0.0695998,0 -0.10439954,0 -0.12602141,-0.0192145 C 0.09135922,0.41616642 0.09135922,0.38524227 0.09135922,0.32339424 Z"
     strokeWidth="0.0347948"
     />
  <g 
     transform="scale(0.49944085,0.49151493)">
    <path
       d="m 0.18292309,0.79141975 c -0.0816323,0 -0.14780854,-0.0597526 -0.14780854,-0.1334657 v -0.2669315 c 0,-0.1677771 0,-0.2516652 0.05772286,-0.30378716 C 0.15056032,0.0351139 0.24346353,0.0351139 0.42927068,0.0351139 h 0.19707805 c 0.0816346,0 0.14780854,0.05975483 0.14780854,0.13346575"
        strokeWidth="0.0702269"
     />
  </g>
</svg>
