<?xml version="1.0" encoding="UTF-8" standalone="no"?>
<svg
   width="64"
   height="64"
   viewBox="0 0 6.963026 6.9632"
   preserveAspectRatio="xMidYMid"
   version="1.1"
   id="svg8"
   sodipodi:docname="blender.svg"
   inkscape:version="1.2.2 (732a01da63, 2022-12-09)"
   xml:space="preserve"
   xmlns:inkscape="http://www.inkscape.org/namespaces/inkscape"
   xmlns:sodipodi="http://sodipodi.sourceforge.net/DTD/sodipodi-0.dtd"
   xmlns="http://www.w3.org/2000/svg"
   xmlns:svg="http://www.w3.org/2000/svg"><defs
     id="defs12"><path
       d="M1.253 280.732l1.605-3.131 99.353-188.518-44.15-83.475C54.392-1.283 45.074.474 43.87 8.188L1.253 280.732z"
       id="a" /><filter
       x="-0.41601458"
       y="-0.15030569"
       width="1.8320292"
       height="1.3006114"
       filterUnits="objectBoundingBox"
       id="b"><feGaussianBlur
         stdDeviation="17.5"
         in="SourceAlpha"
         result="shadowBlurInner1"
         id="feGaussianBlur8916" /><feOffset
         in="shadowBlurInner1"
         result="shadowOffsetInner1"
         id="feOffset8918" /><feComposite
         in="shadowOffsetInner1"
         in2="SourceAlpha"
         operator="arithmetic"
         k2="-1"
         k3="1"
         result="shadowInnerInner1"
         id="feComposite8920" /><feColorMatrix
         values="0 0 0 0 0 0 0 0 0 0 0 0 0 0 0 0 0 0 0.06 0"
         in="shadowInnerInner1"
         id="feColorMatrix8922" /></filter><path
       d="M134.417 148.974l32.039-32.812-32.039-61.007c-3.042-5.791-10.433-6.398-13.443-.59l-17.705 34.109-.53 1.744 31.678 58.556z"
       id="c" /><filter
       x="-0.13183295"
       y="-0.17669426"
       width="1.2793603"
       height="1.2619949"
       filterUnits="objectBoundingBox"
       id="d"><feGaussianBlur
         stdDeviation="3.5"
         in="SourceAlpha"
         result="shadowBlurInner1"
         id="feGaussianBlur8926" /><feOffset
         dx="1"
         dy="-9"
         in="shadowBlurInner1"
         result="shadowOffsetInner1"
         id="feOffset8928" /><feComposite
         in="shadowOffsetInner1"
         in2="SourceAlpha"
         operator="arithmetic"
         k2="-1"
         k3="1"
         result="shadowInnerInner1"
         id="feComposite8930" /><feColorMatrix
         values="0 0 0 0 0 0 0 0 0 0 0 0 0 0 0 0 0 0 0.09 0"
         in="shadowInnerInner1"
         id="feColorMatrix8932" /></filter></defs><sodipodi:namedview
     id="namedview10"
     pagecolor="#ffffff"
     bordercolor="#000000"
     borderopacity="0.25"
     inkscape:showpageshadow="2"
     inkscape:pageopacity="0.0"
     inkscape:pagecheckerboard="0"
     inkscape:deskcolor="#d1d1d1"
     showgrid="false"
     showguides="true"
     inkscape:zoom="5.62961"
     inkscape:cx="73.184466"
     inkscape:cy="49.737016"
     inkscape:window-width="1920"
     inkscape:window-height="1009"
     inkscape:window-x="-8"
     inkscape:window-y="-8"
     inkscape:window-maximized="1"
     inkscape:current-layer="svg8" /><rect
     style="fill:#27384c;fill-opacity:1;stroke-width:0.0939266"
     id="rect370"
     width="6.9632001"
     height="6.9632001"
     x="-8.7e-05"
     y="0" /><style
     id="style8834">.st0{fill:#007acc}.st1{fill:#fff}</style><g
     id="g8869"
     transform="matrix(0.01776698,0,0,0.01776698,0.7784857,1.4083073)"><path
       d="m 100.43032,115.19455 c 0.9308,-16.605196 9.06217,-31.234634 21.32947,-41.605201 12.03021,-10.186163 28.2227,-16.412016 45.89042,-16.412016 17.65016,0 33.84265,6.225853 45.88164,16.412016 12.25852,10.370567 20.38989,25.000005 21.32948,41.587641 0.9308,17.06183 -5.9273,32.91185 -17.95751,44.66106 -12.2673,11.95118 -29.71549,19.4503 -49.25361,19.4503 -19.53811,0 -37.02143,-7.49912 -49.27995,-19.4503 -12.03899,-11.74921 -18.879526,-27.59923 -17.93994,-44.6435 z"
       fill="#ffffff"
       id="path8863" /><path
       d="m 133.16767,116.67618 c 0.47761,-8.52027 4.64988,-16.02676 10.94434,-21.347992 6.17281,-5.22661 14.48131,-8.421149 23.54678,-8.421149 9.05645,0 17.36496,3.194539 23.54227,8.421149 6.28995,5.321232 10.46223,12.827722 10.94434,21.338982 0.4776,8.75457 -3.04135,16.88736 -9.21415,22.91598 -6.29446,6.13225 -15.24729,9.98012 -25.27246,9.98012 -10.02518,0 -18.99602,-3.84787 -25.28598,-9.98012 -6.17731,-6.02862 -9.68725,-14.16141 -9.20514,-22.90697 z"
       fill="#265787"
       id="path8865" /><path
       d="m 78.410775,134.17918 c 0.0587,3.34136 1.124321,9.83443 2.722754,14.90516 3.359418,10.73298 9.057785,20.66223 16.986734,29.41297 8.136657,8.99457 18.156207,16.21913 29.729047,21.34856 12.16434,5.38681 25.34464,8.13214 39.03517,8.1097 13.66795,-0.0182 26.84825,-2.81771 39.01259,-8.24516 11.57284,-5.1791 21.58336,-12.43526 29.70647,-21.43435 7.92443,-8.78686 13.61377,-18.73417 16.98222,-29.46715 1.69325,-5.42293 2.76339,-10.92714 3.19235,-16.44941 0.41992,-5.44099 0.24382,-10.89102 -0.5283,-16.33652 -1.50813,-10.61107 -5.1791,-20.567408 -10.83232,-29.643255 -5.17007,-8.339845 -11.83472,-15.64116 -19.75915,-21.786547 l 0.0181,-0.01355 -79.97131,-61.4041993 c -0.0722,-0.054184 -0.13094,-0.1128837 -0.2077,-0.1625525 -5.24683,-4.0276892 -14.06982,-4.0141432 -19.84044,0.022577 -5.83382,4.0818733 -6.50209,10.8323168 -1.30945,15.0902878 l -0.0226,0.02258 33.35486,27.123688 -101.663026,0.108368 h -0.13546 c -8.403061,0.009 -16.481016,5.522269 -18.079448,12.489449 -1.643587,7.098125 4.063812,12.986137 12.801007,13.017744 l -0.01355,0.03161 51.529137,-0.09934 -91.9505199,70.57938 c -0.117399,0.0858 -0.2438287,0.1761 -0.3521971,0.26189 -8.67398087,6.64208 -11.4780111,17.68662 -6.0144417,24.67637 5.5448457,7.10716 17.3344157,7.12071 26.0987037,0.0406 l 50.183563,-41.07159 c 0,0 -0.731487,5.54484 -0.672787,8.87265 z m 128.953785,18.56711 c -10.34014,10.5343 -24.81635,16.50811 -40.48008,16.53981 -15.68632,0.027 -30.16252,-5.89262 -40.50266,-16.40886 -5.05268,-5.12492 -8.76429,-11.02197 -11.05357,-17.30281 -2.24413,-6.17248 -3.11559,-12.72425 -2.53763,-19.33472 0.54636,-6.46146 2.4699,-12.62491 5.54034,-18.20136 3.01625,-5.48163 7.17036,-10.434966 12.2998,-14.625207 10.05116,-8.190839 22.84765,-12.62491 36.23114,-12.643026 13.39703,-0.01801 26.1845,4.375426 36.24469,12.539173 5.1204,4.17218 9.27,9.107454 12.28626,14.580054 3.08398,5.571936 4.99397,11.712806 5.5629,18.192336 0.56894,6.60143 -0.30253,13.14417 -2.54665,19.32116 -2.2938,6.29891 -5.99187,12.19595 -11.04454,17.34345 z"
       fill="#ea7600"
       id="path8867" /></g></svg>
