<?xml version="1.0" encoding="UTF-8" standalone="no"?>
<svg
   width="64"
   height="64"
   viewBox="0 0 6.963026 6.9632"
   preserveAspectRatio="xMidYMid"
   version="1.1"
   id="svg8"
   sodipodi:docname="codewars.svg"
   inkscape:version="1.2.2 (732a01da63, 2022-12-09)"
   xml:space="preserve"
   xmlns:inkscape="http://www.inkscape.org/namespaces/inkscape"
   xmlns:sodipodi="http://sodipodi.sourceforge.net/DTD/sodipodi-0.dtd"
   xmlns="http://www.w3.org/2000/svg"
   xmlns:svg="http://www.w3.org/2000/svg"><defs
     id="defs12"><path
       d="M1.253 280.732l1.605-3.131 99.353-188.518-44.15-83.475C54.392-1.283 45.074.474 43.87 8.188L1.253 280.732z"
       id="a" /><filter
       x="-0.41601458"
       y="-0.15030569"
       width="1.8320292"
       height="1.3006114"
       filterUnits="objectBoundingBox"
       id="b"><feGaussianBlur
         stdDeviation="17.5"
         in="SourceAlpha"
         result="shadowBlurInner1"
         id="feGaussianBlur8916" /><feOffset
         in="shadowBlurInner1"
         result="shadowOffsetInner1"
         id="feOffset8918" /><feComposite
         in="shadowOffsetInner1"
         in2="SourceAlpha"
         operator="arithmetic"
         k2="-1"
         k3="1"
         result="shadowInnerInner1"
         id="feComposite8920" /><feColorMatrix
         values="0 0 0 0 0 0 0 0 0 0 0 0 0 0 0 0 0 0 0.06 0"
         in="shadowInnerInner1"
         id="feColorMatrix8922" /></filter><path
       d="M134.417 148.974l32.039-32.812-32.039-61.007c-3.042-5.791-10.433-6.398-13.443-.59l-17.705 34.109-.53 1.744 31.678 58.556z"
       id="c" /><filter
       x="-0.13183295"
       y="-0.17669426"
       width="1.2793603"
       height="1.2619949"
       filterUnits="objectBoundingBox"
       id="d"><feGaussianBlur
         stdDeviation="3.5"
         in="SourceAlpha"
         result="shadowBlurInner1"
         id="feGaussianBlur8926" /><feOffset
         dx="1"
         dy="-9"
         in="shadowBlurInner1"
         result="shadowOffsetInner1"
         id="feOffset8928" /><feComposite
         in="shadowOffsetInner1"
         in2="SourceAlpha"
         operator="arithmetic"
         k2="-1"
         k3="1"
         result="shadowInnerInner1"
         id="feComposite8930" /><feColorMatrix
         values="0 0 0 0 0 0 0 0 0 0 0 0 0 0 0 0 0 0 0.09 0"
         in="shadowInnerInner1"
         id="feColorMatrix8932" /></filter></defs><sodipodi:namedview
     id="namedview10"
     pagecolor="#ffffff"
     bordercolor="#000000"
     borderopacity="0.25"
     inkscape:showpageshadow="2"
     inkscape:pageopacity="0.0"
     inkscape:pagecheckerboard="0"
     inkscape:deskcolor="#d1d1d1"
     showgrid="false"
     showguides="true"
     inkscape:zoom="5.62961"
     inkscape:cx="73.184466"
     inkscape:cy="28.776416"
     inkscape:window-width="1920"
     inkscape:window-height="1009"
     inkscape:window-x="-8"
     inkscape:window-y="-8"
     inkscape:window-maximized="1"
     inkscape:current-layer="svg8" /><rect
     style="fill:#27384c;fill-opacity:1;stroke-width:0.0939266"
     id="rect370"
     width="6.9632001"
     height="6.9632001"
     x="-8.7e-05"
     y="0" /><style
     id="style8834">.st0{fill:#007acc}.st1{fill:#fff}</style><g
     style="fill:#ffffff"
     id="g8890"
     transform="matrix(0.13893527,0,0,0.13938036,1.2417147,1.2654486)"><path
       d="M 1.016,16.266 0.907,16.214 C 0.667,16.079 0.48,15.881 0.35,15.625 0.162,15.281 0.079,14.958 0.079,14.625 l 0.026,-0.172 c 0,-0.266 0.068,-0.505 0.188,-0.734 L 0.402,13.521 C 0.454,13.412 0.532,13.318 0.6,13.229 0.683,13.135 0.694,13.015 0.668,12.906 L 0.6,12.692 C 0.522,12.426 0.47,12.161 0.47,11.895 L 0.428,11.734 c 0,-0.297 0.078,-0.589 0.266,-0.802 L 0.829,10.76 C 0.923,10.625 1.069,10.546 1.23,10.494 1.36,10.452 1.454,10.317 1.47,10.161 L 1.496,9.708 C 1.496,9.349 1.668,9.015 1.934,8.77 L 2.257,8.53 C 2.32,8.467 2.387,8.4 2.439,8.29 2.507,8.212 2.522,8.102 2.507,8.024 2.481,7.894 2.507,7.852 2.575,7.836 2.789,7.919 2.924,7.893 3.018,7.784 L 3.19,7.56 3.669,7.024 C 3.804,6.894 3.857,6.649 3.773,6.467 L 3.617,6.118 c -0.026,-0.078 0,-0.172 0.068,-0.198 0.172,0 0.292,0.063 0.344,0.172 l 0.052,0.094 c 0.083,0.161 0.271,0.24 0.401,0.172 0.292,-0.104 0.536,-0.13 0.76,-0.13 H 5.669 C 5.961,6.228 6.2,6.025 6.258,5.718 6.31,5.348 6.44,5.051 6.628,4.853 6.831,4.624 7.055,4.452 7.321,4.317 7.67,4.135 7.884,3.864 7.951,3.52 8.045,3.093 8.269,2.786 8.576,2.588 L 9.592,2.015 9.884,1.838 c 0.172,-0.104 0.333,-0.24 0.469,-0.401 l 0.266,-0.318 c 0.13,-0.135 0.266,-0.224 0.427,-0.266 0.13,-0.042 0.318,-0.068 0.479,-0.052 l 0.531,0.036 c 0.266,0 0.479,0.068 0.693,0.161 l 0.135,0.068 c 0.135,0.052 0.266,0.026 0.333,-0.068 L 13.337,0.93 13.91,0.331 c 0.135,-0.135 0.292,-0.188 0.469,-0.161 0.172,0.026 0.344,0.094 0.505,0.177 0.24,0.13 0.438,0.182 0.667,0.182 h 0.135 c 0.292,0 0.583,0.042 0.88,0.109 l 0.198,0.052 c 0.198,0.052 0.401,-0.026 0.531,-0.188 0.042,-0.068 0.135,-0.078 0.188,-0.026 0.042,0.026 0.052,0.052 0.068,0.094 0.026,0.266 0.188,0.469 0.401,0.531 l 0.214,0.068 c 0.224,0.068 0.427,0.214 0.557,0.401 0.135,0.198 0.297,0.401 0.479,0.531 l 0.135,0.135 c 0.135,0.135 0.318,0.188 0.505,0.172 h 0.786 c 0.323,0 0.63,0.057 0.938,0.188 0.292,0.135 0.599,0.161 0.875,0.052 0.297,-0.089 0.604,-0.13 0.911,-0.089 l 0.573,0.089 c 0.266,0.031 0.531,0.161 0.693,0.365 l 0.068,0.063 c 0.13,0.135 0.266,0.307 0.396,0.495 0.083,0.172 0.271,0.266 0.453,0.266 h 0.828 c 0.203,0 0.401,0.042 0.563,0.135 0.172,0.13 0.318,0.266 0.453,0.401 l 0.13,0.172 c 0.161,0.188 0.24,0.438 0.229,0.708 0,0.214 0.161,0.396 0.37,0.396 l 0.271,0.031 c 0.188,0 0.344,0.13 0.438,0.302 l 0.135,0.271 0.344,0.771 c 0.057,0.135 0.068,0.266 0.057,0.375 0,0.13 0.036,0.24 0.13,0.292 l 0.135,0.094 c 0.172,0.135 0.266,0.333 0.24,0.563 l -0.094,0.625 -0.026,0.266 c -0.026,0.135 0.036,0.307 0.161,0.401 0.198,0.13 0.292,0.307 0.302,0.505 v 0.266 c 0,0.135 -0.026,0.297 -0.13,0.401 -0.083,0.109 -0.135,0.24 -0.135,0.401 l 0.042,0.307 c 0,0.214 0.13,0.401 0.266,0.531 0.188,0.135 0.292,0.349 0.323,0.563 0.052,0.333 0.063,0.599 0.063,0.865 v 0.307 c 0,0.109 0,0.214 0.042,0.318 0.026,0.094 0.094,0.188 0.172,0.245 l 0.266,0.198 c 0.271,0.172 0.458,0.401 0.563,0.708 0.135,0.292 0.172,0.599 0.172,0.906 v 0.104 c 0,0.24 -0.026,0.495 -0.104,0.719 -0.068,0.245 -0.052,0.469 0.036,0.667 0.109,0.188 0.177,0.401 0.203,0.63 0.052,0.266 0.026,0.531 -0.068,0.745 l -0.026,0.094 c -0.068,0.161 -0.172,0.307 -0.307,0.427 -0.135,0.135 -0.266,0.214 -0.344,0.307 -0.083,0.078 -0.135,0.214 -0.094,0.333 l 0.036,0.188 c 0.068,0.266 0.068,0.531 0,0.771 v 0.109 c -0.052,0.198 -0.13,0.37 -0.214,0.531 -0.094,0.172 -0.224,0.307 -0.396,0.401 l -0.203,0.13 c -0.094,0.057 -0.161,0.177 -0.161,0.297 0,0.13 -0.052,0.266 -0.13,0.344 l -0.203,0.271 c -0.13,0.172 -0.302,0.318 -0.49,0.396 -0.188,0.135 -0.349,0.271 -0.469,0.401 -0.135,0.161 -0.24,0.349 -0.292,0.536 -0.052,0.24 -0.24,0.37 -0.443,0.37 h -0.719 c -0.188,0 -0.359,0.135 -0.438,0.297 -0.094,0.208 -0.188,0.359 -0.307,0.49 -0.135,0.135 -0.214,0.297 -0.271,0.479 -0.026,0.161 -0.156,0.271 -0.292,0.214 -0.172,-0.078 -0.344,0 -0.427,0.135 -0.156,0.266 -0.318,0.469 -0.49,0.641 l -0.094,0.078 c -0.177,0.135 -0.401,0.24 -0.604,0.24 -0.24,0 -0.359,0.109 -0.396,0.266 -0.042,0.135 -0.068,0.307 -0.083,0.458 -0.026,0.156 -0.078,0.302 -0.13,0.438 l -0.068,0.078 c -0.135,0.203 -0.24,0.401 -0.375,0.573 l -0.052,0.083 c -0.172,0.224 -0.401,0.401 -0.667,0.464 -0.323,0.109 -0.599,0.135 -0.88,0.135 h -0.188 c -0.13,0 -0.266,0.078 -0.359,0.214 l -0.078,0.135 -0.083,0.156 -0.172,0.297 c -0.135,0.24 -0.333,0.396 -0.599,0.479 -0.266,0.068 -0.573,0.094 -0.854,0.078 l -0.214,-0.026 c -0.188,0 -0.359,-0.052 -0.531,-0.135 -0.135,-0.052 -0.323,0 -0.401,0.135 -0.135,0.188 -0.297,0.292 -0.469,0.349 l -0.401,0.13 c -0.266,0.068 -0.557,0.068 -0.839,0 l -0.214,-0.068 c -0.13,0 -0.266,-0.063 -0.375,-0.13 -0.13,-0.068 -0.266,-0.094 -0.396,-0.083 l -0.177,0.031 c -0.266,0.026 -0.505,0 -0.745,-0.068 L 14.429,31.412 C 14.268,31.36 14.122,31.256 14.028,31.105 13.96,30.975 13.814,30.865 13.627,30.839 H 13.2 c -0.266,-0.036 -0.505,-0.13 -0.667,-0.333 L 12.002,30.001 11.814,29.84 11.522,29.626 11.35,29.496 C 11.147,29.361 10.907,29.256 10.652,29.23 L 9.855,29.095 c -0.083,0 -0.135,-0.026 -0.214,-0.042 L 9.334,28.985 C 9.199,28.959 9.068,28.855 8.975,28.719 8.897,28.589 8.746,28.531 8.616,28.589 8.35,28.693 8.137,28.719 7.923,28.761 H 7.735 C 7.386,28.787 7.068,28.735 6.745,28.589 6.427,28.454 6.214,28.256 6.016,28 5.855,27.771 5.615,27.599 5.318,27.547 L 4.948,27.469 C 4.682,27.412 4.412,27.308 4.172,27.146 3.906,26.958 3.771,26.787 3.667,26.573 3.563,26.375 3.495,26.146 3.479,25.906 V 25.802 C 3.453,25.531 3.265,25.292 3.015,25.229 2.708,25.135 2.479,25 2.281,24.828 2.093,24.651 1.984,24.401 1.984,24.135 L 2.015,23.546 C 2.015,23.317 1.947,23.119 1.786,22.973 1.625,22.812 1.52,22.614 1.52,22.4 L 1.478,21.921 C 1.452,21.572 1.384,21.228 1.306,20.879 1.228,20.572 1.348,20.264 1.598,20.119 L 1.692,20.051 C 1.827,19.957 1.88,19.785 1.801,19.624 L 1.692,19.494 C 1.562,19.359 1.426,19.265 1.291,19.228 1.187,19.197 1.161,19.093 1.161,19.025 l 0.13,-0.161 c 0.083,-0.094 0.068,-0.24 0,-0.318 C 1.187,18.437 1.135,18.306 1.119,18.171 L 1.093,17.239 c 0,-0.188 0.026,-0.375 0.078,-0.557 0.057,-0.161 0,-0.349 -0.156,-0.427 z m 13.198,-1.761 c 0.094,-0.094 0.078,-0.266 0,-0.333 -0.135,-0.104 -0.229,-0.224 -0.307,-0.359 L 13.772,13.599 C 13.683,13.427 13.564,13.281 13.428,13.146 L 13.402,13.12 c -0.135,-0.104 -0.229,-0.24 -0.307,-0.401 -0.068,-0.13 -0.068,-0.266 0,-0.401 l 0.078,-0.13 c 0.083,-0.135 0.135,-0.323 0.135,-0.479 v -0.057 c 0,-0.13 -0.052,-0.266 -0.135,-0.396 -0.052,-0.109 -0.104,-0.24 -0.13,-0.375 v -0.078 c -0.042,-0.161 0,-0.333 0.104,-0.469 0.109,-0.172 0.188,-0.333 0.229,-0.531 V 9.772 C 13.428,9.642 13.402,9.47 13.319,9.334 13.241,9.199 13.215,9.068 13.267,8.907 L 13.361,8.641 C 13.439,8.401 13.564,8.188 13.72,8 L 13.908,7.802 14.043,7.641 14.121,7.563 C 14.199,7.48 14.215,7.349 14.147,7.24 14.079,7.105 14.043,6.974 14.069,6.839 L 14.095,6.651 C 14.137,6.385 14.23,6.12 14.402,5.906 l 0.052,-0.052 c 0.198,-0.266 0.453,-0.443 0.745,-0.536 l 0.365,-0.13 C 15.72,5.136 15.83,4.959 15.83,4.787 c 0,-0.214 0.068,-0.401 0.187,-0.573 L 16.08,4.146 c 0.135,-0.224 0.297,-0.453 0.401,-0.693 l 0.094,-0.172 c 0.026,-0.042 0.042,-0.094 0.042,-0.135 0,-0.224 -0.135,-0.427 -0.349,-0.438 L 15.685,2.666 c -0.333,-0.026 -0.667,0 -0.99,0 l -1.13,0.135 c -0.177,0 -0.307,0.13 -0.323,0.318 0,0.188 -0.135,0.349 -0.292,0.401 L 12.471,3.65 12.336,3.692 11.935,3.827 C 11.643,3.921 11.404,4.134 11.268,4.426 L 11.164,4.598 C 11.029,4.895 10.805,5.134 10.523,5.306 10.257,5.478 10.122,5.759 10.096,6.077 V 6.212 C 10.07,6.478 9.987,6.743 9.83,6.931 L 9.762,7.04 C 9.653,7.17 9.627,7.347 9.694,7.493 9.762,7.649 9.803,7.826 9.788,7.998 V 8.706 C 9.788,8.894 9.653,9.05 9.522,9.102 9.334,9.17 9.215,9.316 9.163,9.503 L 9.095,9.769 c -0.052,0.271 0.042,0.536 0.266,0.698 0.214,0.156 0.349,0.396 0.401,0.693 v 0.24 c 0.042,0.266 0.188,0.531 0.427,0.667 0.24,0.161 0.427,0.401 0.531,0.667 l 0.068,0.214 c 0.109,0.292 0.349,0.464 0.615,0.49 h 0.078 c 0.24,0 0.453,0.135 0.589,0.349 0.13,0.214 0.344,0.359 0.583,0.401 l 0.375,0.104 c 0.229,0.068 0.443,0.188 0.615,0.359 l 0.026,0.031 c 0.135,0.104 0.349,0.089 0.469,-0.057 l 0.094,-0.104 z m 1.52,-1.224 c 0.13,0.078 0.266,0.036 0.318,-0.083 l 0.042,-0.063 c 0.094,-0.188 0.214,-0.375 0.344,-0.536 l 0.271,-0.401 c 0.036,0 0.052,-0.026 0.063,-0.052 l 0.323,-0.427 c 0.135,-0.13 0.292,-0.224 0.479,-0.224 0.172,0 0.323,-0.094 0.401,-0.266 0.052,-0.188 0.13,-0.365 0.292,-0.51 l 0.068,-0.078 c 0.135,-0.135 0.266,-0.203 0.401,-0.266 0.172,-0.026 0.333,-0.057 0.495,-0.057 h 0.396 c 0.161,0 0.297,-0.063 0.375,-0.198 C 20.08,9.985 20.2,9.896 20.335,9.828 L 20.47,9.771 c 0.214,-0.089 0.453,-0.156 0.693,-0.182 l 0.266,-0.026 c 0.161,0 0.333,0 0.495,0.089 0.13,0.094 0.307,0.083 0.438,-0.026 l 0.094,-0.052 c 0.198,-0.135 0.427,-0.24 0.667,-0.266 h 0.026 c 0.266,-0.052 0.505,-0.052 0.776,-0.042 h 0.13 c 0.266,0.042 0.495,0.135 0.667,0.333 l 0.042,0.052 c 0.135,0.135 0.344,0.245 0.531,0.245 h 0.229 c 0.068,0 0.13,-0.031 0.172,-0.094 0.042,-0.042 0.109,-0.083 0.172,-0.083 h 0.135 c 0.188,0 0.359,0.052 0.531,0.109 l 0.229,0.094 c 0.214,0.063 0.438,0.13 0.667,0.156 h 0.161 c 0.104,0 0.172,-0.063 0.172,-0.156 0,-0.135 -0.026,-0.271 -0.094,-0.375 L 27.575,9.333 C 27.471,9.161 27.387,8.974 27.309,8.802 L 27.283,8.734 c -0.068,-0.135 -0.068,-0.266 0,-0.401 V 8.265 C 27.309,8.161 27.257,8.041 27.148,7.999 H 27.044 C 26.83,7.931 26.643,7.811 26.508,7.64 L 26.378,7.505 C 26.243,7.375 26.164,7.172 26.107,6.974 26.044,6.802 25.899,6.667 25.711,6.667 H 25.148 C 24.95,6.641 24.773,6.532 24.653,6.375 L 24.601,6.307 C 24.507,6.172 24.429,6.015 24.377,5.854 24.309,5.719 24.163,5.64 24.028,5.682 L 23.867,5.734 C 23.601,5.828 23.336,5.864 23.07,5.838 L 22.856,5.812 c -0.229,0 -0.443,-0.094 -0.615,-0.224 L 22.106,5.494 C 22.002,5.411 21.898,5.359 21.773,5.306 21.643,5.254 21.533,5.28 21.455,5.374 l -0.068,0.078 c -0.13,0.135 -0.318,0.24 -0.505,0.266 L 20.163,5.76 c -0.135,0 -0.266,0.068 -0.359,0.161 -0.109,0.094 -0.229,0.156 -0.365,0.182 h -0.026 c -0.13,0 -0.266,0.094 -0.396,0.188 V 6.317 C 18.882,6.452 18.71,6.52 18.533,6.52 l -0.052,0.026 c -0.161,0 -0.318,0 -0.479,0.042 H 17.841 C 17.617,6.624 17.44,6.812 17.388,7.052 L 17.336,7.359 C 17.294,7.573 17.201,7.76 17.07,7.932 16.935,8.093 16.773,8.198 16.575,8.198 h -0.224 c -0.135,0.031 -0.271,0.177 -0.245,0.333 0.031,0.229 0,0.427 -0.036,0.63 L 16.018,9.385 C 15.961,9.588 15.83,9.744 15.653,9.812 l -0.078,0.042 h -0.026 c -0.078,0.052 -0.135,0.172 -0.068,0.266 0.083,0.135 0.109,0.266 0.094,0.401 l -0.042,0.427 c 0,0.156 -0.063,0.307 -0.13,0.438 -0.083,0.135 -0.083,0.266 -0.026,0.401 l 0.13,0.292 c 0.068,0.135 0.083,0.271 0.042,0.427 -0.042,0.135 -0.068,0.266 -0.052,0.401 0,0.135 0.078,0.266 0.188,0.323 z m 10.532,9.641 c 0.135,0.13 0.333,0.182 0.495,0.078 l 0.266,-0.172 c 0.135,-0.094 0.24,-0.229 0.292,-0.401 V 22.401 L 27.454,22 l 0.078,-0.135 0.057,-0.13 0.052,-0.094 c 0.052,-0.109 0.13,-0.188 0.266,-0.229 l 0.052,-0.026 c 0.109,-0.026 0.177,-0.13 0.177,-0.24 0,-0.13 0.063,-0.24 0.13,-0.333 l 0.109,-0.094 0.266,-0.344 v -0.026 c 0.078,-0.109 0.13,-0.229 0.161,-0.365 0.026,-0.13 0,-0.266 -0.057,-0.396 l -0.026,-0.057 c -0.052,-0.13 -0.078,-0.224 -0.094,-0.344 l -0.036,-0.375 -0.042,-0.401 c 0,-0.13 0.052,-0.266 0.135,-0.396 0.089,-0.109 0.156,-0.245 0.214,-0.375 v -0.052 l 0.026,-0.026 C 28.948,17.427 28.88,17.291 28.761,17.291 28.626,17.228 28.495,17.119 28.454,16.958 L 28.412,16.88 c -0.063,-0.24 -0.104,-0.479 -0.104,-0.719 l 0.026,-0.667 v -0.042 c 0,-0.224 -0.188,-0.401 -0.401,-0.401 h -0.026 c -0.266,0 -0.479,-0.078 -0.667,-0.266 L 27.136,14.65 26.865,14.348 26.521,13.947 c -0.135,-0.188 -0.266,-0.349 -0.443,-0.51 -0.13,-0.13 -0.333,-0.266 -0.531,-0.292 l -0.266,-0.042 c -0.135,-0.026 -0.307,-0.089 -0.453,-0.182 -0.109,-0.083 -0.266,-0.057 -0.375,0.052 l -0.172,0.188 -0.083,0.052 C 24.104,13.239 24.016,13.187 23.974,13.078 23.922,12.922 23.922,12.734 24,12.573 v -0.078 c 0,-0.094 -0.078,-0.161 -0.161,-0.135 h -0.214 c -0.24,0 -0.479,-0.026 -0.703,-0.13 l -0.135,-0.057 c -0.135,-0.068 -0.292,-0.104 -0.438,-0.104 -0.135,0 -0.271,0.026 -0.401,0.104 l -0.052,0.042 c -0.161,0.104 -0.349,0.161 -0.536,0.172 h -0.438 c -0.203,0 -0.401,0.068 -0.536,0.177 -0.172,0.104 -0.359,0.172 -0.557,0.208 l -0.359,0.057 c -0.161,0.036 -0.333,0.104 -0.484,0.224 -0.13,0.135 -0.318,0.214 -0.49,0.266 l -0.068,0.031 c -0.214,0.063 -0.401,0.198 -0.531,0.396 l -0.161,0.161 c -0.094,0.135 -0.094,0.292 0,0.427 0.078,0.135 0.24,0.172 0.401,0.135 l 0.198,-0.083 c 0.104,-0.036 0.229,0 0.318,0.052 0.083,0.068 0.203,0.109 0.323,0.094 l 0.333,-0.036 c 0.188,0 0.375,0 0.557,0.052 0.203,0.068 0.375,0.135 0.536,0.266 0.161,0.135 0.333,0.188 0.531,0.214 0.203,0.026 0.401,0.068 0.589,0.135 l 0.13,0.026 c 0.135,0.042 0.245,0.13 0.323,0.266 0.068,0.109 0.13,0.266 0.13,0.401 v 0.042 c 0,0.156 0.135,0.266 0.271,0.266 h 0.078 c 0.214,0 0.443,0.026 0.667,0.094 l 0.094,0.036 c 0.135,0.057 0.266,0.135 0.359,0.271 0.109,0.13 0.172,0.266 0.214,0.396 l 0.042,0.188 c 0.036,0.203 0.052,0.401 0.052,0.615 v 0.068 c 0,0.13 0.094,0.266 0.24,0.318 0.135,0.026 0.292,0.083 0.443,0.161 l 0.063,0.026 c 0.177,0.104 0.349,0.24 0.479,0.401 l 0.068,0.094 c 0.177,0.198 0.266,0.453 0.266,0.703 v 0.094 c 0,0.203 -0.036,0.401 -0.104,0.589 -0.052,0.161 0,0.349 0.172,0.401 l 0.094,0.068 c 0.203,0.078 0.375,0.224 0.505,0.396 0.135,0.203 0.188,0.427 0.188,0.667 v 0.401 c -0.026,0.135 -0.063,0.24 -0.13,0.333 -0.067,0.093 -0.068,0.229 0,0.323 l 0.078,0.13 z m -8.532,-6.828 h -0.026 c -0.057,0 -0.083,0.068 -0.068,0.135 l 0.052,0.266 c 0.052,0.214 0.078,0.427 0.109,0.641 0.026,0.214 0.13,0.396 0.292,0.531 h 0.052 c 0.203,0.161 0.323,0.401 0.333,0.641 v 0.667 c -0.026,0.13 0,0.266 0.083,0.375 l 0.063,0.063 c 0.135,0.161 0.188,0.349 0.203,0.536 l 0.036,0.734 c 0,0.172 -0.104,0.318 -0.266,0.344 l -0.13,0.026 c -0.094,0 -0.135,0.109 -0.135,0.203 0,0.104 0.042,0.224 0.078,0.333 v 0.026 c 0.042,0.13 0.057,0.266 0.042,0.401 L 18.4,22.375 c -0.052,0.266 -0.135,0.505 -0.266,0.745 l -0.094,0.161 c -0.068,0.13 -0.161,0.214 -0.271,0.266 -0.13,0.052 -0.224,0.161 -0.266,0.292 l -0.104,0.479 c -0.068,0.271 -0.188,0.536 -0.349,0.802 h -0.026 c -0.161,0.214 -0.359,0.401 -0.599,0.531 l -0.161,0.109 -0.401,0.198 c -0.13,0.057 -0.214,0.177 -0.24,0.323 l -0.063,0.438 c -0.042,0.266 -0.135,0.495 -0.323,0.667 l -0.172,0.203 -0.203,0.198 -0.198,0.214 c -0.161,0.188 -0.401,0.266 -0.667,0.229 l -0.479,-0.094 -0.443,-0.057 h -0.12 c -0.052,0.057 -0.063,0.135 -0.026,0.214 0.094,0.161 0.24,0.271 0.401,0.271 l 0.292,0.052 c 0.135,0 0.297,0.068 0.427,0.13 0.135,0.094 0.266,0.161 0.427,0.203 h 0.026 c 0.177,0.068 0.359,0.078 0.536,0.068 l 0.198,-0.031 c 0.229,-0.026 0.443,0 0.625,0.083 l 0.161,0.052 c 0.068,0.026 0.172,0 0.24,-0.068 0.083,-0.078 0.161,-0.13 0.266,-0.172 l 0.109,-0.026 c 0.172,-0.052 0.344,-0.083 0.531,-0.083 h 0.109 c 0.156,0 0.307,0.031 0.438,0.109 l 0.052,0.026 c 0.094,0.042 0.203,0 0.271,-0.078 0.036,-0.094 0.13,-0.188 0.224,-0.266 l 0.333,-0.229 0.214,-0.135 0.109,-0.063 c 0.13,-0.094 0.318,-0.135 0.479,-0.135 l 0.479,-0.042 c 0.188,-0.026 0.349,-0.156 0.401,-0.344 0.052,-0.203 0.13,-0.401 0.266,-0.573 0.135,-0.177 0.266,-0.323 0.401,-0.453 0.172,-0.135 0.344,-0.203 0.531,-0.214 h 0.109 c 0.214,-0.042 0.37,-0.24 0.359,-0.453 v -0.896 c 0.026,-0.13 0.078,-0.307 0.156,-0.438 l 0.271,-0.401 0.104,-0.135 c 0.083,-0.068 0.135,-0.156 0.229,-0.266 l 0.13,-0.172 c 0.083,-0.135 0.083,-0.307 -0.026,-0.427 -0.13,-0.135 -0.198,-0.323 -0.224,-0.505 v -0.057 c -0.026,-0.214 -0.026,-0.438 0.036,-0.667 v -0.063 c 0.068,-0.177 0.161,-0.349 0.271,-0.51 0.104,-0.13 0.089,-0.318 -0.042,-0.427 L 22.619,20.76 c -0.188,-0.161 -0.292,-0.401 -0.318,-0.641 l -0.026,-0.266 c 0,-0.083 0,-0.172 -0.026,-0.266 L 22.223,19.384 C 22.192,19.16 22.062,18.983 21.874,18.853 L 21.78,18.827 c -0.135,-0.083 -0.266,-0.203 -0.375,-0.359 -0.104,-0.135 -0.156,-0.323 -0.198,-0.51 l -0.042,-0.224 c 0,-0.083 -0.052,-0.135 -0.13,-0.172 l -0.641,-0.203 c -0.135,-0.026 -0.266,-0.13 -0.359,-0.224 h -0.026 c -0.083,-0.109 -0.214,-0.109 -0.297,-0.031 l -0.13,0.135 c -0.026,0.042 -0.057,0.052 -0.094,0.042 -0.083,0 -0.135,-0.068 -0.109,-0.135 0.026,-0.214 -0.052,-0.427 -0.224,-0.557 l -0.177,-0.135 -0.396,-0.266 c -0.109,-0.042 -0.271,0 -0.323,0.13 l -0.052,0.083 c 0,0.026 -0.042,0.036 -0.052,0.052 -0.057,0 -0.135,0 -0.135,-0.068 l -0.042,-0.068 c -0.036,-0.078 -0.13,-0.13 -0.214,-0.156 z m -1.599,1.333 -0.068,-0.068 c -0.068,-0.052 -0.135,-0.042 -0.203,0.026 -0.094,0.161 -0.172,0.333 -0.214,0.51 v 0.026 c -0.036,0.172 -0.198,0.292 -0.359,0.266 h -0.156 c -0.188,0 -0.333,0.161 -0.333,0.344 0,0.24 -0.083,0.484 -0.229,0.667 l -0.078,0.083 c -0.135,0.172 -0.333,0.292 -0.536,0.359 l -0.104,0.026 c -0.135,0.042 -0.24,0.135 -0.266,0.292 0,0.135 -0.083,0.271 -0.188,0.375 l -0.135,0.104 c -0.161,0.177 -0.401,0.271 -0.641,0.297 l -0.667,0.068 c -0.214,0 -0.396,0.13 -0.531,0.333 -0.135,0.198 -0.333,0.333 -0.531,0.359 l -0.297,0.026 c -0.214,0.026 -0.438,0.026 -0.667,-0.026 L 9.802,21.468 9.437,21.374 c -0.13,-0.042 -0.24,0 -0.318,0.094 L 8.984,21.64 C 8.812,21.838 8.562,21.932 8.317,21.906 L 7.452,21.802 c -0.135,0 -0.24,-0.068 -0.359,-0.135 C 6.958,21.589 6.864,21.495 6.77,21.401 L 6.437,21 C 6.401,20.974 6.333,20.958 6.265,20.974 L 6.077,21.052 5.332,21.24 C 5.197,21.282 5.025,21.24 4.894,21.162 4.759,21.053 4.597,21.027 4.436,21.027 H 4.264 C 4.103,21.069 3.998,21.241 4.05,21.402 l 0.052,0.266 c 0.042,0.135 0.031,0.292 -0.036,0.427 -0.067,0.135 -0.052,0.266 0.036,0.401 L 4.185,22.6 c 0.104,0.161 0.266,0.297 0.401,0.427 0.13,0.135 0.266,0.266 0.37,0.443 l 0.203,0.359 c 0.104,0.188 0.266,0.292 0.479,0.292 0.198,0 0.401,0.068 0.557,0.198 l 0.401,0.375 c 0.109,0.094 0.266,0.109 0.375,0.026 l 0.068,-0.026 c 0.078,0 0.13,0.052 0.13,0.135 v 0.068 c 0,0.172 0.135,0.333 0.307,0.396 l 0.599,0.135 c 0.214,0.068 0.427,0.135 0.63,0.266 h 0.104 c 0.109,0 0.203,-0.094 0.188,-0.214 v -0.464 c 0,-0.135 0.052,-0.271 0.161,-0.323 l 0.068,-0.026 c 0.063,0.026 0.13,0.078 0.104,0.135 v 0.224 c 0,0.172 0.052,0.333 0.172,0.453 0.135,0.135 0.307,0.161 0.453,0.109 0.161,-0.068 0.323,-0.083 0.495,-0.068 l 0.495,0.026 c 0.24,0.026 0.464,0 0.667,-0.094 0.24,-0.078 0.438,-0.188 0.625,-0.333 l 0.078,-0.052 0.401,-0.359 c 0.135,-0.135 0.307,-0.203 0.469,-0.203 h 0.531 c 0.266,-0.026 0.51,-0.266 0.536,-0.531 l 0.052,-0.266 c 0,-0.177 0.078,-0.333 0.198,-0.469 0.135,-0.135 0.266,-0.214 0.401,-0.266 l 0.161,-0.068 c 0.224,-0.094 0.401,-0.292 0.479,-0.531 l 0.078,-0.323 c 0.068,-0.266 0.203,-0.531 0.401,-0.703 l 0.026,-0.031 c 0.161,-0.13 0.188,-0.396 0.083,-0.583 L 16.089,20.64 c -0.094,-0.135 -0.109,-0.333 -0.042,-0.505 0.068,-0.188 0.135,-0.349 0.24,-0.51 l 0.135,-0.188 c 0.052,-0.104 0.052,-0.266 -0.026,-0.359 -0.083,-0.104 -0.135,-0.24 -0.135,-0.37 L 16.235,18.52 v -0.453 c 0.026,-0.135 0,-0.307 -0.042,-0.443 l -0.052,-0.156 z m -1.906,-1.016 v -0.036 c 0,-0.135 -0.083,-0.214 -0.188,-0.214 h -0.349 c -0.13,0.026 -0.266,0.026 -0.375,0 h -0.599 c -0.307,0 -0.599,-0.057 -0.891,-0.135 L 11.504,15.948 11.238,15.865 10.639,15.667 C 10.316,15.573 10.076,15.36 9.931,15.068 L 9.863,14.933 c -0.094,-0.198 -0.292,-0.307 -0.49,-0.266 -0.229,0 -0.453,0 -0.667,-0.104 L 8.545,14.495 C 8.238,14.36 8.014,14.094 8.014,13.735 L 7.957,13.376 C 7.921,13.188 7.801,13.017 7.639,12.949 7.451,12.866 7.28,12.761 7.103,12.642 L 7.04,12.6 C 6.837,12.439 6.665,12.23 6.571,11.975 L 6.545,11.897 C 6.477,11.683 6.467,11.454 6.519,11.23 l 0.026,-0.083 c 0.052,-0.172 0.068,-0.344 0.068,-0.531 0,-0.161 -0.068,-0.323 -0.188,-0.443 L 6.237,10.001 C 6.023,9.829 5.893,9.574 5.878,9.293 5.852,9.001 5.852,8.72 5.904,8.439 V 8.361 C 5.904,8.2 5.769,8.095 5.638,8.095 H 5.596 C 5.424,8.095 5.278,8.199 5.195,8.361 5.132,8.549 5.023,8.694 4.903,8.84 L 4.851,8.908 4.45,9.309 C 4.315,9.439 4.236,9.642 4.21,9.84 4.184,10.043 4.132,10.241 4.049,10.429 l -0.026,0.068 c -0.068,0.156 -0.172,0.307 -0.307,0.401 -0.13,0.104 -0.224,0.266 -0.224,0.422 l -0.026,0.615 c 0,0.266 -0.042,0.536 -0.135,0.802 l -0.026,0.104 c -0.068,0.177 0,0.359 0.161,0.443 l 0.557,0.24 0.052,0.026 c 0.042,0 0.057,0.026 0.068,0.068 0.042,0.052 0,0.13 -0.042,0.13 l -0.13,0.068 C 3.893,13.842 3.836,13.925 3.81,14.019 l -0.026,0.13 v 0.026 l -0.135,0.75 c -0.026,0.104 -0.026,0.224 -0.026,0.344 0,0.109 0.068,0.203 0.161,0.24 l 0.292,0.135 c 0.135,0.078 0.297,0.172 0.401,0.266 l 0.135,0.109 c 0.036,0.052 0.104,0.104 0.156,0.13 l 0.057,0.052 c 0.094,0.083 0.156,0.188 0.188,0.307 l 0.13,0.599 c 0,0.161 0.135,0.297 0.266,0.333 l 0.214,0.068 c 0,0 0.042,0 0.068,0.026 l 0.266,0.083 c 0.214,0.068 0.401,0.188 0.563,0.344 0.161,0.135 0.318,0.307 0.453,0.495 l 0.052,0.052 c 0.109,0.135 0.266,0.203 0.427,0.161 0.161,-0.042 0.333,-0.052 0.505,-0.052 H 8.16 c 0.13,0 0.307,0.036 0.453,0.13 0.13,0.083 0.307,0.135 0.464,0.203 h 0.042 c 0.161,0.068 0.333,0.036 0.469,-0.052 0.13,-0.109 0.307,-0.161 0.479,-0.161 l 0.625,0.036 c 0.135,0 0.266,-0.026 0.333,-0.13 h 0.026 l 0.229,-0.214 0.068,-0.068 c 0.104,-0.13 0.266,-0.188 0.422,-0.198 h 0.604 c 0.156,0 0.307,-0.135 0.37,-0.266 0.068,-0.135 0.203,-0.245 0.359,-0.271 l 0.271,-0.052 c 0.104,0 0.198,-0.094 0.24,-0.214 0.036,-0.13 0.104,-0.24 0.198,-0.318 l 0.214,-0.214 c 0.135,-0.135 0.203,-0.266 0.229,-0.427 z"
       id="path8881"
       style="fill:#ffffff" /></g></svg>
