<?xml version="1.0" encoding="UTF-8" standalone="no"?>
<svg
   width="64"
   height="64"
   viewBox="0 0 6.963026 6.9632"
   preserveAspectRatio="xMidYMid"
   version="1.1"
   id="svg8"
   sodipodi:docname="csharp.svg"
   inkscape:version="1.2.2 (732a01da63, 2022-12-09)"
   xml:space="preserve"
   xmlns:inkscape="http://www.inkscape.org/namespaces/inkscape"
   xmlns:sodipodi="http://sodipodi.sourceforge.net/DTD/sodipodi-0.dtd"
   xmlns="http://www.w3.org/2000/svg"
   xmlns:svg="http://www.w3.org/2000/svg"><defs
     id="defs12"><path
       d="M1.253 280.732l1.605-3.131 99.353-188.518-44.15-83.475C54.392-1.283 45.074.474 43.87 8.188L1.253 280.732z"
       id="a" /><filter
       x="-0.41601458"
       y="-0.15030569"
       width="1.8320292"
       height="1.3006114"
       filterUnits="objectBoundingBox"
       id="b"><feGaussianBlur
         stdDeviation="17.5"
         in="SourceAlpha"
         result="shadowBlurInner1"
         id="feGaussianBlur8916" /><feOffset
         in="shadowBlurInner1"
         result="shadowOffsetInner1"
         id="feOffset8918" /><feComposite
         in="shadowOffsetInner1"
         in2="SourceAlpha"
         operator="arithmetic"
         k2="-1"
         k3="1"
         result="shadowInnerInner1"
         id="feComposite8920" /><feColorMatrix
         values="0 0 0 0 0 0 0 0 0 0 0 0 0 0 0 0 0 0 0.06 0"
         in="shadowInnerInner1"
         id="feColorMatrix8922" /></filter><path
       d="M134.417 148.974l32.039-32.812-32.039-61.007c-3.042-5.791-10.433-6.398-13.443-.59l-17.705 34.109-.53 1.744 31.678 58.556z"
       id="c" /><filter
       x="-0.13183295"
       y="-0.17669426"
       width="1.2793603"
       height="1.2619949"
       filterUnits="objectBoundingBox"
       id="d"><feGaussianBlur
         stdDeviation="3.5"
         in="SourceAlpha"
         result="shadowBlurInner1"
         id="feGaussianBlur8926" /><feOffset
         dx="1"
         dy="-9"
         in="shadowBlurInner1"
         result="shadowOffsetInner1"
         id="feOffset8928" /><feComposite
         in="shadowOffsetInner1"
         in2="SourceAlpha"
         operator="arithmetic"
         k2="-1"
         k3="1"
         result="shadowInnerInner1"
         id="feComposite8930" /><feColorMatrix
         values="0 0 0 0 0 0 0 0 0 0 0 0 0 0 0 0 0 0 0.09 0"
         in="shadowInnerInner1"
         id="feColorMatrix8932" /></filter></defs><sodipodi:namedview
     id="namedview10"
     pagecolor="#ffffff"
     bordercolor="#000000"
     borderopacity="0.25"
     inkscape:showpageshadow="2"
     inkscape:pageopacity="0.0"
     inkscape:pagecheckerboard="0"
     inkscape:deskcolor="#d1d1d1"
     showgrid="false"
     showguides="true"
     inkscape:zoom="5.62961"
     inkscape:cx="73.184466"
     inkscape:cy="28.776416"
     inkscape:window-width="1920"
     inkscape:window-height="1009"
     inkscape:window-x="-8"
     inkscape:window-y="-8"
     inkscape:window-maximized="1"
     inkscape:current-layer="svg8" /><rect
     style="fill:#27384c;fill-opacity:1;stroke-width:0.0939266"
     id="rect370"
     width="6.9632001"
     height="6.9632001"
     x="-8.7e-05"
     y="0" /><style
     id="style8834">.st0{fill:#007acc}.st1{fill:#fff}</style><g
     style="fill:none"
     id="g8913"
     transform="matrix(0.16593102,0,0,0.16593102,0.81880652,0.81973156)"><path
       d="M 27.6947,22.9999 C 27.883,22.6617 28,22.2807 28,21.9385 V 10.0613 C 28,9.71913 27.8831,9.33818 27.6947,9 L 16,16 Z"
       fill="#7f3a86"
       id="path8892" /><path
       d="m 17.0395,29.7433 9.9216,-5.9386 C 27.2469,23.6336 27.5067,23.3382 27.695,23 L 16.0003,16 4.30566,23 c 0.18832,0.3382 0.44816,0.6337 0.73389,0.8047 l 9.92155,5.9386 c 0.5715,0.3422 1.5069,0.3422 2.0784,0 z"
       fill="#662579"
       id="path8894" /><path
       d="M 27.6947,8.99996 C 27.5064,8.6617 27.2465,8.36629 26.9608,8.19521 L 17.0392,2.25662 c -0.5715,-0.34216 -1.5069,-0.34216 -2.0784,0 L 5.03922,8.19521 C 4.46761,8.53729 4,9.37709 4,10.0613 V 21.9386 C 4,22.2807 4.11694,22.6618 4.30533,23 L 16,16 Z"
       fill="#9a5196"
       id="path8896" /><path
       d="M 16.0385,24 C 11.6061,24 8,20.4112 8,16 c 0,-4.4112 3.6061,-8 8.0385,-8 2.8073,0 5.4289,1.47569 6.8805,3.8618 l -3.4425,2.0647 C 18.7492,12.736 17.4399,12 16.0385,12 c -2.2163,0 -4.0192,1.7944 -4.0192,4 0,2.2056 1.8029,4 4.0192,4 1.3977,0 2.7036,-0.7319 3.4322,-1.9168 l 3.4498,2.0527 C 21.4692,22.5234 18.8467,24 16.0385,24 Z"
       fill="#ffffff"
       id="path8898" /><path
       fill-rule="evenodd"
       clip-rule="evenodd"
       d="m 25.0001,13 v 0.9974 H 22.9999 V 13 h -0.9998 v 0.9974 H 21 V 15 h 1.0001 v 1.9948 H 21 V 18 h 1.0001 v 1 h 0.9998 L 23,18 h 2.0001 v 1 h 0.9998 V 18 H 27 V 17 H 25.9999 V 15 H 27 V 13.9974 H 25.9999 V 13 Z m 0,4 v -2 h -2.0002 v 1.9948 z"
       fill="#ffffff"
       id="path8900" /></g></svg>
