<?xml version="1.0" encoding="UTF-8" standalone="no"?>
<svg
   width="64"
   height="64"
   viewBox="0 0 6.963026 6.9632"
   preserveAspectRatio="xMidYMid"
   version="1.1"
   id="svg8"
   sodipodi:docname="firebase.svg"
   inkscape:version="1.2.2 (732a01da63, 2022-12-09)"
   xml:space="preserve"
   xmlns:inkscape="http://www.inkscape.org/namespaces/inkscape"
   xmlns:sodipodi="http://sodipodi.sourceforge.net/DTD/sodipodi-0.dtd"
   xmlns:xlink="http://www.w3.org/1999/xlink"
   xmlns="http://www.w3.org/2000/svg"
   xmlns:svg="http://www.w3.org/2000/svg"><defs
     id="defs12"><path
       d="M1.253 280.732l1.605-3.131 99.353-188.518-44.15-83.475C54.392-1.283 45.074.474 43.87 8.188L1.253 280.732z"
       id="a" /><filter
       x="-0.41601458"
       y="-0.15030569"
       width="1.8320292"
       height="1.3006114"
       filterUnits="objectBoundingBox"
       id="b"><feGaussianBlur
         stdDeviation="17.5"
         in="SourceAlpha"
         result="shadowBlurInner1"
         id="feGaussianBlur8916" /><feOffset
         in="shadowBlurInner1"
         result="shadowOffsetInner1"
         id="feOffset8918" /><feComposite
         in="shadowOffsetInner1"
         in2="SourceAlpha"
         operator="arithmetic"
         k2="-1"
         k3="1"
         result="shadowInnerInner1"
         id="feComposite8920" /><feColorMatrix
         values="0 0 0 0 0 0 0 0 0 0 0 0 0 0 0 0 0 0 0.06 0"
         in="shadowInnerInner1"
         id="feColorMatrix8922" /></filter><path
       d="M134.417 148.974l32.039-32.812-32.039-61.007c-3.042-5.791-10.433-6.398-13.443-.59l-17.705 34.109-.53 1.744 31.678 58.556z"
       id="c" /><filter
       x="-0.13183295"
       y="-0.17669426"
       width="1.2793603"
       height="1.2619949"
       filterUnits="objectBoundingBox"
       id="d"><feGaussianBlur
         stdDeviation="3.5"
         in="SourceAlpha"
         result="shadowBlurInner1"
         id="feGaussianBlur8926" /><feOffset
         dx="1"
         dy="-9"
         in="shadowBlurInner1"
         result="shadowOffsetInner1"
         id="feOffset8928" /><feComposite
         in="shadowOffsetInner1"
         in2="SourceAlpha"
         operator="arithmetic"
         k2="-1"
         k3="1"
         result="shadowInnerInner1"
         id="feComposite8930" /><feColorMatrix
         values="0 0 0 0 0 0 0 0 0 0 0 0 0 0 0 0 0 0 0.09 0"
         in="shadowInnerInner1"
         id="feColorMatrix8932" /></filter></defs><sodipodi:namedview
     id="namedview10"
     pagecolor="#ffffff"
     bordercolor="#000000"
     borderopacity="0.25"
     inkscape:showpageshadow="2"
     inkscape:pageopacity="0.0"
     inkscape:pagecheckerboard="0"
     inkscape:deskcolor="#d1d1d1"
     showgrid="false"
     showguides="true"
     inkscape:zoom="5.62961"
     inkscape:cx="73.184466"
     inkscape:cy="28.776416"
     inkscape:window-width="1920"
     inkscape:window-height="1009"
     inkscape:window-x="-8"
     inkscape:window-y="-8"
     inkscape:window-maximized="1"
     inkscape:current-layer="svg8" /> <style
     id="style8834">.st0{fill:#007acc}.st1{fill:#fff}</style><g
     id="g8983"
     transform="matrix(0.01317321,0,0,0.01317321,1.835101,1.2074263)"><path
       d="M 0,282.998 2.123,280.026 102.527,89.512 102.739,87.495 58.48,4.358 C 54.77,-2.606 44.33,-0.845 43.114,6.951 Z"
       fill="#ffc24a"
       id="path8937" /><use
       fill="#ffa712"
       fill-rule="evenodd"
       xlink:href="#a"
       id="use8939" /><use
       filter="url(#b)"
       xlink:href="#a"
       id="use8941" /><path
       d="M 135.005,150.38 167.96,116.63 134.995,53.7 c -3.129,-5.957 -11.866,-5.975 -14.962,0 L 102.42,87.287 v 2.86 l 32.584,60.233 z"
       fill="#f4bd62"
       id="path8943" /><use
       fill="#ffa50e"
       fill-rule="evenodd"
       xlink:href="#c"
       id="use8945" /><use
       filter="url(#d)"
       xlink:href="#c"
       id="use8947" /><path
       fill="#f6820c"
       d="m 0,282.998 0.962,-0.968 3.496,-1.42 128.477,-128 1.628,-4.431 -32.05,-61.074 z"
       id="path8949" /><path
       d="M 139.121,347.551 255.396,282.704 222.192,78.209 c -1.039,-6.398 -8.888,-8.927 -13.468,-4.34 L 0,282.998 115.608,347.546 a 24.126,24.126 0 0 0 23.513,0.005"
       fill="#fde068"
       id="path8951" /><path
       d="M 254.354,282.16 221.402,79.218 c -1.03,-6.35 -7.558,-8.977 -12.103,-4.424 L 1.29,282.6 115.629,346.508 a 23.943,23.943 0 0 0 23.334,0.006 l 115.392,-64.355 z"
       fill="#fcca3f"
       id="path8953" /><path
       d="m 139.12,345.64 a 24.126,24.126 0 0 1 -23.512,-0.005 l -114.677,-63.62 -0.93,0.983 115.607,64.548 a 24.126,24.126 0 0 0 23.513,0.005 l 116.275,-64.847 -0.285,-1.752 -115.99,64.689 z"
       fill="#eeab37"
       id="path8955" /></g></svg>
