<?xml version="1.0" encoding="UTF-8" standalone="no"?>
<svg
   width="64"
   height="64"
   viewBox="0 0 6.963026 6.9632"
   preserveAspectRatio="xMidYMid"
   version="1.1"
   id="svg8"
   sodipodi:docname="github.svg"
   inkscape:version="1.2.2 (732a01da63, 2022-12-09)"
   xml:space="preserve"
   xmlns:inkscape="http://www.inkscape.org/namespaces/inkscape"
   xmlns:sodipodi="http://sodipodi.sourceforge.net/DTD/sodipodi-0.dtd"
   xmlns="http://www.w3.org/2000/svg"
   xmlns:svg="http://www.w3.org/2000/svg"><defs
     id="defs12"><path
       d="M1.253 280.732l1.605-3.131 99.353-188.518-44.15-83.475C54.392-1.283 45.074.474 43.87 8.188L1.253 280.732z"
       id="a" /><filter
       x="-0.41601458"
       y="-0.15030569"
       width="1.8320292"
       height="1.3006114"
       filterUnits="objectBoundingBox"
       id="b"><feGaussianBlur
         stdDeviation="17.5"
         in="SourceAlpha"
         result="shadowBlurInner1"
         id="feGaussianBlur8916" /><feOffset
         in="shadowBlurInner1"
         result="shadowOffsetInner1"
         id="feOffset8918" /><feComposite
         in="shadowOffsetInner1"
         in2="SourceAlpha"
         operator="arithmetic"
         k2="-1"
         k3="1"
         result="shadowInnerInner1"
         id="feComposite8920" /><feColorMatrix
         values="0 0 0 0 0 0 0 0 0 0 0 0 0 0 0 0 0 0 0.06 0"
         in="shadowInnerInner1"
         id="feColorMatrix8922" /></filter><path
       d="M134.417 148.974l32.039-32.812-32.039-61.007c-3.042-5.791-10.433-6.398-13.443-.59l-17.705 34.109-.53 1.744 31.678 58.556z"
       id="c" /><filter
       x="-0.13183295"
       y="-0.17669426"
       width="1.2793603"
       height="1.2619949"
       filterUnits="objectBoundingBox"
       id="d"><feGaussianBlur
         stdDeviation="3.5"
         in="SourceAlpha"
         result="shadowBlurInner1"
         id="feGaussianBlur8926" /><feOffset
         dx="1"
         dy="-9"
         in="shadowBlurInner1"
         result="shadowOffsetInner1"
         id="feOffset8928" /><feComposite
         in="shadowOffsetInner1"
         in2="SourceAlpha"
         operator="arithmetic"
         k2="-1"
         k3="1"
         result="shadowInnerInner1"
         id="feComposite8930" /><feColorMatrix
         values="0 0 0 0 0 0 0 0 0 0 0 0 0 0 0 0 0 0 0.09 0"
         in="shadowInnerInner1"
         id="feColorMatrix8932" /></filter></defs><sodipodi:namedview
     id="namedview10"
     pagecolor="#ffffff"
     bordercolor="#000000"
     borderopacity="0.25"
     inkscape:showpageshadow="2"
     inkscape:pageopacity="0.0"
     inkscape:pagecheckerboard="0"
     inkscape:deskcolor="#d1d1d1"
     showgrid="false"
     showguides="true"
     inkscape:zoom="5.62961"
     inkscape:cx="73.184466"
     inkscape:cy="28.776416"
     inkscape:window-width="1920"
     inkscape:window-height="1009"
     inkscape:window-x="-8"
     inkscape:window-y="-8"
     inkscape:window-maximized="1"
     inkscape:current-layer="svg8" /> <style
     id="style8834">.st0{fill:#007acc}.st1{fill:#fff}</style><g
     id="g8987"
     transform="matrix(0.0149389,0,0,0.0149389,1.2854938,1.310224)"
     style="fill:#f9f9f9">
	<path
   style="fill:#f9f9f9"
   d="M 145.66,0 C 65.219,0 0,65.219 0,145.66 c 0,80.45 65.219,145.66 145.66,145.66 80.441,0 145.66,-65.21 145.66,-145.66 C 291.319,65.219 226.1,0 145.66,0 Z m 40.802,256.625 c -0.838,-11.398 -1.775,-25.518 -1.83,-31.235 -0.364,-4.388 -0.838,-15.549 -11.434,-22.677 42.068,-3.523 62.087,-26.774 63.526,-57.499 1.202,-17.497 -5.754,-32.883 -18.107,-45.3 0.628,-13.282 -0.401,-29.023 -1.256,-35.941 -9.486,-2.731 -31.608,8.949 -37.79,13.947 -13.037,-5.062 -44.945,-6.837 -64.336,0 C 101.488,68.252 85.839,62.28 77.309,63.946 69.434,81.398 74.496,97.894 76.034,99.86 c -10.142,9.268 -24.289,20.675 -20.447,44.572 6.163,35.04 30.816,53.94 70.508,58.564 -8.466,1.73 -9.896,8.048 -10.606,10.788 -26.656,10.997 -34.275,-6.791 -37.644,-11.425 -11.188,-13.847 -21.23,-9.832 -21.849,-9.614 -0.601,0.218 -1.056,1.092 -0.992,1.511 0.564,2.986 6.655,6.018 6.955,6.263 8.257,6.154 11.316,17.27 13.2,20.438 11.844,19.473 39.374,11.398 39.638,11.562 0.018,1.702 -0.191,16.032 -0.355,27.184 C 64.245,245.992 27.311,200.2 27.311,145.66 c 0,-65.365 52.984,-118.348 118.348,-118.348 65.364,0 118.349,52.983 118.349,118.348 0,51.008 -32.318,94.332 -77.546,110.965 z"
   id="path8985" />
</g></svg>
