<?xml version="1.0" encoding="UTF-8" standalone="no"?>
<svg
   width="64"
   height="64"
   viewBox="0 0 6.963026 6.9632"
   preserveAspectRatio="xMidYMid"
   version="1.1"
   id="svg8"
   sodipodi:docname="gmail.svg"
   inkscape:version="1.2.2 (732a01da63, 2022-12-09)"
   xml:space="preserve"
   xmlns:inkscape="http://www.inkscape.org/namespaces/inkscape"
   xmlns:sodipodi="http://sodipodi.sourceforge.net/DTD/sodipodi-0.dtd"
   xmlns="http://www.w3.org/2000/svg"
   xmlns:svg="http://www.w3.org/2000/svg"><defs
     id="defs12"><path
       d="M1.253 280.732l1.605-3.131 99.353-188.518-44.15-83.475C54.392-1.283 45.074.474 43.87 8.188L1.253 280.732z"
       id="a" /><filter
       x="-0.41601458"
       y="-0.15030569"
       width="1.8320292"
       height="1.3006114"
       filterUnits="objectBoundingBox"
       id="b"><feGaussianBlur
         stdDeviation="17.5"
         in="SourceAlpha"
         result="shadowBlurInner1"
         id="feGaussianBlur8916" /><feOffset
         in="shadowBlurInner1"
         result="shadowOffsetInner1"
         id="feOffset8918" /><feComposite
         in="shadowOffsetInner1"
         in2="SourceAlpha"
         operator="arithmetic"
         k2="-1"
         k3="1"
         result="shadowInnerInner1"
         id="feComposite8920" /><feColorMatrix
         values="0 0 0 0 0 0 0 0 0 0 0 0 0 0 0 0 0 0 0.06 0"
         in="shadowInnerInner1"
         id="feColorMatrix8922" /></filter><path
       d="M134.417 148.974l32.039-32.812-32.039-61.007c-3.042-5.791-10.433-6.398-13.443-.59l-17.705 34.109-.53 1.744 31.678 58.556z"
       id="c" /><filter
       x="-0.13183295"
       y="-0.17669426"
       width="1.2793603"
       height="1.2619949"
       filterUnits="objectBoundingBox"
       id="d"><feGaussianBlur
         stdDeviation="3.5"
         in="SourceAlpha"
         result="shadowBlurInner1"
         id="feGaussianBlur8926" /><feOffset
         dx="1"
         dy="-9"
         in="shadowBlurInner1"
         result="shadowOffsetInner1"
         id="feOffset8928" /><feComposite
         in="shadowOffsetInner1"
         in2="SourceAlpha"
         operator="arithmetic"
         k2="-1"
         k3="1"
         result="shadowInnerInner1"
         id="feComposite8930" /><feColorMatrix
         values="0 0 0 0 0 0 0 0 0 0 0 0 0 0 0 0 0 0 0.09 0"
         in="shadowInnerInner1"
         id="feColorMatrix8932" /></filter></defs><sodipodi:namedview
     id="namedview10"
     pagecolor="#ffffff"
     bordercolor="#000000"
     borderopacity="0.25"
     inkscape:showpageshadow="2"
     inkscape:pageopacity="0.0"
     inkscape:pagecheckerboard="0"
     inkscape:deskcolor="#d1d1d1"
     showgrid="false"
     showguides="true"
     inkscape:zoom="5.62961"
     inkscape:cx="73.184466"
     inkscape:cy="28.776416"
     inkscape:window-width="1920"
     inkscape:window-height="1009"
     inkscape:window-x="-8"
     inkscape:window-y="-8"
     inkscape:window-maximized="1"
     inkscape:current-layer="svg8" /> <style
     id="style8834">.st0{fill:#007acc}.st1{fill:#fff}</style><g
     style="image-rendering:optimizeQuality;shape-rendering:geometricPrecision;text-rendering:geometricPrecision"
     id="g9087"
     transform="matrix(0.00358366,0,0,0.00358366,1.1671848,1.8059786)"><path
       fill="none"
       d="m 1138.734,931.095 h 0.283 m 0,0 h -0.283"
       id="path8996" /><path
       d="m 1179.439,7.087 c 57.543,0 104.627,47.083 104.627,104.626 v 30.331 L 1138.706,245.877 643.833,586.771 148.96,242.419 V 931.095 H 111.713 C 54.17,931.095 7.086,884.013 7.086,826.47 V 111.742 C 7.086,54.198 54.17,7.115 111.713,7.115 L 643.833,401.64 1179.41,7.115 Z"
       fill="#e75a4d"
       id="path8998" /><path
       fill="url(#a)"
       d="M 111.713,7.087 643.833,401.612 1179.439,7.087 Z"
       id="path9005"
       style="fill:url(#a-6)" /><path
       fill="#e7e4d7"
       d="m 148.96,242.419 v 688.676 h 989.774 V 245.877 L 643.833,586.771 Z"
       id="path9007" /><path
       fill="#b8b7ae"
       d="M 148.96,931.095 643.833,586.771 641.593,585.185 148.96,923.527 Z"
       id="path9009" /><path
       fill="#b7b6ad"
       d="m 1138.734,245.877 0.283,685.218 -495.184,-344.324 z"
       id="path9011" /><path
       d="m 1284.066,142.044 0.17,684.51 c -2.494,76.082 -35.461,103.238 -145.219,104.514 l -0.283,-685.219 145.36,-103.833 z"
       fill="#b2392f"
       id="path9013" /><path
       fill="url(#b)"
       d="M 111.713,7.087 643.833,401.612 1179.439,7.087 Z"
       id="path9020"
       style="fill:url(#b-0)" /><path
       fill="url(#c)"
       d="M 111.713,7.087 643.833,401.612 1179.439,7.087 Z"
       id="path9027"
       style="fill:url(#c-2)" /><path
       fill="url(#d)"
       d="M 111.713,7.087 643.833,401.612 1179.439,7.087 Z"
       id="path9034"
       style="fill:url(#d-6)" /><path
       fill="url(#e)"
       d="M 111.713,7.087 643.833,401.612 1179.439,7.087 Z"
       id="path9041" /><path
       fill="url(#f)"
       d="M 111.713,7.087 643.833,401.612 1179.439,7.087 Z"
       id="path9048" /><path
       fill="url(#g)"
       d="M 111.713,7.087 643.833,401.612 1179.439,7.087 Z"
       id="path9055" /><path
       fill="url(#h)"
       d="M 111.713,7.087 643.833,401.612 1179.439,7.087 Z"
       id="path9062" /><path
       fill="#f7f5ed"
       d="M 111.713,7.087 643.833,401.612 1179.439,7.087 Z"
       id="path9064" /></g></svg>
