<?xml version="1.0" encoding="UTF-8" standalone="no"?>
<svg
   width="64"
   height="64"
   viewBox="0 0 6.963026 6.9632"
   preserveAspectRatio="xMidYMid"
   version="1.1"
   id="svg8"
   sodipodi:docname="javascript.svg"
   inkscape:version="1.2.2 (732a01da63, 2022-12-09)"
   xml:space="preserve"
   xmlns:inkscape="http://www.inkscape.org/namespaces/inkscape"
   xmlns:sodipodi="http://sodipodi.sourceforge.net/DTD/sodipodi-0.dtd"
   xmlns="http://www.w3.org/2000/svg"
   xmlns:svg="http://www.w3.org/2000/svg"><defs
     id="defs12"><path
       d="M1.253 280.732l1.605-3.131 99.353-188.518-44.15-83.475C54.392-1.283 45.074.474 43.87 8.188L1.253 280.732z"
       id="a" /><filter
       x="-0.41601458"
       y="-0.15030569"
       width="1.8320292"
       height="1.3006114"
       filterUnits="objectBoundingBox"
       id="b"><feGaussianBlur
         stdDeviation="17.5"
         in="SourceAlpha"
         result="shadowBlurInner1"
         id="feGaussianBlur8916" /><feOffset
         in="shadowBlurInner1"
         result="shadowOffsetInner1"
         id="feOffset8918" /><feComposite
         in="shadowOffsetInner1"
         in2="SourceAlpha"
         operator="arithmetic"
         k2="-1"
         k3="1"
         result="shadowInnerInner1"
         id="feComposite8920" /><feColorMatrix
         values="0 0 0 0 0 0 0 0 0 0 0 0 0 0 0 0 0 0 0.06 0"
         in="shadowInnerInner1"
         id="feColorMatrix8922" /></filter><path
       d="M134.417 148.974l32.039-32.812-32.039-61.007c-3.042-5.791-10.433-6.398-13.443-.59l-17.705 34.109-.53 1.744 31.678 58.556z"
       id="c" /><filter
       x="-0.13183295"
       y="-0.17669426"
       width="1.2793603"
       height="1.2619949"
       filterUnits="objectBoundingBox"
       id="d"><feGaussianBlur
         stdDeviation="3.5"
         in="SourceAlpha"
         result="shadowBlurInner1"
         id="feGaussianBlur8926" /><feOffset
         dx="1"
         dy="-9"
         in="shadowBlurInner1"
         result="shadowOffsetInner1"
         id="feOffset8928" /><feComposite
         in="shadowOffsetInner1"
         in2="SourceAlpha"
         operator="arithmetic"
         k2="-1"
         k3="1"
         result="shadowInnerInner1"
         id="feComposite8930" /><feColorMatrix
         values="0 0 0 0 0 0 0 0 0 0 0 0 0 0 0 0 0 0 0.09 0"
         in="shadowInnerInner1"
         id="feColorMatrix8932" /></filter><path
       d="M1.253 280.732l1.605-3.131 99.353-188.518-44.15-83.475C54.392-1.283 45.074.474 43.87 8.188L1.253 280.732z"
       id="a-3" /><filter
       x="-0.41601458"
       y="-0.15030569"
       width="1.8320292"
       height="1.3006114"
       filterUnits="objectBoundingBox"
       id="b-1"><feGaussianBlur
         stdDeviation="17.5"
         in="SourceAlpha"
         result="shadowBlurInner1"
         id="feGaussianBlur8916-4" /><feOffset
         in="shadowBlurInner1"
         result="shadowOffsetInner1"
         id="feOffset8918-4" /><feComposite
         in="shadowOffsetInner1"
         in2="SourceAlpha"
         operator="arithmetic"
         k2="-1"
         k3="1"
         result="shadowInnerInner1"
         id="feComposite8920-1" /><feColorMatrix
         values="0 0 0 0 0 0 0 0 0 0 0 0 0 0 0 0 0 0 0.06 0"
         in="shadowInnerInner1"
         id="feColorMatrix8922-1" /></filter><path
       d="M134.417 148.974l32.039-32.812-32.039-61.007c-3.042-5.791-10.433-6.398-13.443-.59l-17.705 34.109-.53 1.744 31.678 58.556z"
       id="c-6" /><filter
       x="-0.13183295"
       y="-0.17669426"
       width="1.2793603"
       height="1.2619949"
       filterUnits="objectBoundingBox"
       id="d-5"><feGaussianBlur
         stdDeviation="3.5"
         in="SourceAlpha"
         result="shadowBlurInner1"
         id="feGaussianBlur8926-6" /><feOffset
         dx="1"
         dy="-9"
         in="shadowBlurInner1"
         result="shadowOffsetInner1"
         id="feOffset8928-0" /><feComposite
         in="shadowOffsetInner1"
         in2="SourceAlpha"
         operator="arithmetic"
         k2="-1"
         k3="1"
         result="shadowInnerInner1"
         id="feComposite8930-5" /><feColorMatrix
         values="0 0 0 0 0 0 0 0 0 0 0 0 0 0 0 0 0 0 0.09 0"
         in="shadowInnerInner1"
         id="feColorMatrix8932-0" /></filter></defs><sodipodi:namedview
     id="namedview10"
     pagecolor="#ffffff"
     bordercolor="#000000"
     borderopacity="0.25"
     inkscape:showpageshadow="2"
     inkscape:pageopacity="0.0"
     inkscape:pagecheckerboard="0"
     inkscape:deskcolor="#d1d1d1"
     showgrid="false"
     showguides="true"
     inkscape:zoom="5.62961"
     inkscape:cx="73.450914"
     inkscape:cy="28.776416"
     inkscape:window-width="1920"
     inkscape:window-height="1009"
     inkscape:window-x="-8"
     inkscape:window-y="-8"
     inkscape:window-maximized="1"
     inkscape:current-layer="svg8" /> <path
     fill="#398ccb"
     d="m 1.305513,2.5976001 c 0,-0.7140001 0.578,-1.2920001 1.292,-1.2920001 h 1.768001 c 0.714,0 1.292,0.578 1.292,1.2920001 V 4.3656 c 0,0.714 -0.578,1.292 -1.292,1.292 H 2.597513 c -0.714,0 -1.292,-0.578 -1.292,-1.292 z"
     id="path2-7"
     style="fill:#f0db4f;fill-opacity:1;stroke-width:0.034" /><style
     id="style8834">.st0{fill:#007acc}.st1{fill:#fff}</style><path
     d="M 5.3022502,4.6018114 C 5.2703962,4.4032411 5.1409119,4.2365249 4.7574231,4.0809782 4.6242156,4.0197524 4.4757016,3.9759056 4.431437,3.8749616 4.4157168,3.8162179 4.4136484,3.7831228 4.4235769,3.7475456 4.4521214,3.6321267 4.5898795,3.5961358 4.6990931,3.6292309 4.76942,3.6528111 4.8360238,3.7070084 4.8761516,3.793465 5.0639659,3.6718449 5.0635522,3.6726681 5.1946913,3.5891073 5.1467035,3.5146434 5.1210548,3.4803032 5.0896146,3.4484534 4.9766777,3.3222785 4.8227858,3.2573295 4.5766414,3.2622938 4.5340316,3.2676717 4.4910122,3.2734592 4.4483982,3.2788413 4.325537,3.3098679 4.2084591,3.3744032 4.1397869,3.460864 3.9337703,3.6945977 3.992514,4.103731 4.2432089,4.2721062 4.4901806,4.4574384 4.852985,4.4996346 4.8993181,4.6729698 4.9444101,4.8851918 4.7433618,4.9538599 4.5435464,4.9294564 4.3962735,4.8988435 4.3143674,4.823966 4.225834,4.6878626 4.0628451,4.7821835 4.0628451,4.7821835 3.8953014,4.8785728 c 0.039714,0.086875 0.081492,0.1261748 0.1481003,0.201466 0.3152303,0.3197809 1.1041292,0.3040607 1.2456146,-0.1799542 0.00579,-0.016552 0.043851,-0.1274201 0.013234,-0.2982732 z M 3.6723195,3.2879383 h -0.407069 c 0,0.3516348 -0.00165,0.7007875 -0.00165,1.0524223 0,0.2238052 0.011583,0.4289944 -0.024821,0.491875 C 3.1792075,4.9559242 3.0249019,4.9406218 2.9545749,4.9166238 2.8830069,4.8814603 2.8466024,4.8314041 2.8044062,4.7606676 2.7928229,4.7403968 2.7841355,4.7246767 2.7812355,4.7234356 2.670785,4.7908668 2.5607398,4.8587075 2.4502851,4.9261428 c 0.055025,0.1129368 0.1361034,0.2109808 0.2399391,0.2746847 0.155133,0.09308 0.3636317,0.1216242 0.5816494,0.071568 0.141895,-0.041369 0.2643425,-0.1269981 0.3284642,-0.2573098 0.092666,-0.1708532 0.072809,-0.3776972 0.071982,-0.6064666 0.00207,-0.3731466 0,-0.7462932 -3e-7,-1.1206808 z"
     fill="#323330"
     id="path9108"
     style="stroke-width:0.00413688" /><style
     id="style8834-4">.st0{fill:#007acc}.st1{fill:#fff}</style></svg>
