<?xml version="1.0" encoding="UTF-8" standalone="no"?>
<svg
   width="64"
   height="64"
   viewBox="0 0 6.963026 6.9632"
   preserveAspectRatio="xMidYMid"
   version="1.1"
   id="svg8"
   sodipodi:docname="mysql.svg"
   inkscape:version="1.2.2 (732a01da63, 2022-12-09)"
   xml:space="preserve"
   xmlns:inkscape="http://www.inkscape.org/namespaces/inkscape"
   xmlns:sodipodi="http://sodipodi.sourceforge.net/DTD/sodipodi-0.dtd"
   xmlns="http://www.w3.org/2000/svg"
   xmlns:svg="http://www.w3.org/2000/svg"><defs
     id="defs12"><path
       d="M1.253 280.732l1.605-3.131 99.353-188.518-44.15-83.475C54.392-1.283 45.074.474 43.87 8.188L1.253 280.732z"
       id="a" /><filter
       x="-0.41601458"
       y="-0.15030569"
       width="1.8320292"
       height="1.3006114"
       filterUnits="objectBoundingBox"
       id="b"><feGaussianBlur
         stdDeviation="17.5"
         in="SourceAlpha"
         result="shadowBlurInner1"
         id="feGaussianBlur8916" /><feOffset
         in="shadowBlurInner1"
         result="shadowOffsetInner1"
         id="feOffset8918" /><feComposite
         in="shadowOffsetInner1"
         in2="SourceAlpha"
         operator="arithmetic"
         k2="-1"
         k3="1"
         result="shadowInnerInner1"
         id="feComposite8920" /><feColorMatrix
         values="0 0 0 0 0 0 0 0 0 0 0 0 0 0 0 0 0 0 0.06 0"
         in="shadowInnerInner1"
         id="feColorMatrix8922" /></filter><path
       d="M134.417 148.974l32.039-32.812-32.039-61.007c-3.042-5.791-10.433-6.398-13.443-.59l-17.705 34.109-.53 1.744 31.678 58.556z"
       id="c" /><filter
       x="-0.13183295"
       y="-0.17669426"
       width="1.2793603"
       height="1.2619949"
       filterUnits="objectBoundingBox"
       id="d"><feGaussianBlur
         stdDeviation="3.5"
         in="SourceAlpha"
         result="shadowBlurInner1"
         id="feGaussianBlur8926" /><feOffset
         dx="1"
         dy="-9"
         in="shadowBlurInner1"
         result="shadowOffsetInner1"
         id="feOffset8928" /><feComposite
         in="shadowOffsetInner1"
         in2="SourceAlpha"
         operator="arithmetic"
         k2="-1"
         k3="1"
         result="shadowInnerInner1"
         id="feComposite8930" /><feColorMatrix
         values="0 0 0 0 0 0 0 0 0 0 0 0 0 0 0 0 0 0 0.09 0"
         in="shadowInnerInner1"
         id="feColorMatrix8932" /></filter></defs><sodipodi:namedview
     id="namedview10"
     pagecolor="#ffffff"
     bordercolor="#000000"
     borderopacity="0.25"
     inkscape:showpageshadow="2"
     inkscape:pageopacity="0.0"
     inkscape:pagecheckerboard="0"
     inkscape:deskcolor="#d1d1d1"
     showgrid="false"
     showguides="true"
     inkscape:zoom="5.62961"
     inkscape:cx="73.184466"
     inkscape:cy="28.776416"
     inkscape:window-width="1920"
     inkscape:window-height="1009"
     inkscape:window-x="-8"
     inkscape:window-y="-8"
     inkscape:window-maximized="1"
     inkscape:current-layer="svg8" /><style
     id="style8834">.st0{fill:#007acc}.st1{fill:#fff}</style><g
     style="fill:#ffffff"
     id="g9144"
     transform="matrix(0.35924889,0,0,0.35924889,8.8685755,-2.96033)"><path
       d="m -20.805899,12.205982 c -0.300855,0.300856 -0.225641,0.647052 0.300855,1.429062 0.270983,0.405941 0.586774,1.038057 0.70733,1.39919 0.120555,0.376069 0.361133,0.887629 0.526496,1.143143 0.300855,0.42141 0.300855,0.51156 0.105086,1.278634 -0.120555,0.481155 -0.165363,1.083398 -0.105086,1.459467 0.09015,0.632116 0.601711,1.549618 0.917502,1.654703 0.270983,0.09015 0.661988,-0.391004 0.676924,-0.827351 0,-0.376069 0.01494,-0.391005 0.180299,-0.120556 0.285919,0.466219 1.188485,1.458934 1.263699,1.383721 0.02987,-0.02987 -0.165364,-0.421411 -0.451283,-0.857224 -0.270983,-0.451283 -0.586774,-1.038057 -0.706796,-1.30904 -0.165364,-0.451283 -0.225642,-0.481155 -0.421411,-0.270983 -0.120555,0.120556 -0.270983,0.466219 -0.315791,0.78201 -0.120555,0.722266 -0.391005,0.812416 -0.60171,0.195769 -0.210705,-0.616646 -0.210705,-1.670172 0,-2.391905 0.150427,-0.496624 0.135491,-0.631582 -0.120556,-1.008184 -0.165363,-0.225642 -0.42141,-0.767074 -0.556902,-1.203421 -0.135491,-0.42141 -0.451282,-1.052993 -0.706796,-1.384253 -0.586774,-0.827352 -0.586774,-1.128207 0.02987,-1.008185 0.255514,0.04534 0.647052,0.225641 0.88763,0.391005 0.225641,0.165363 0.616646,0.300855 0.857223,0.300855 0.722266,0 1.985964,0.70733 2.903466,1.624831 0.707329,0.706796 1.067929,1.278634 1.835536,2.828251 0.902565,1.835003 0.977779,1.940623 1.534681,2.120922 0.661988,0.225642 2.045708,1.067929 2.045708,1.248762 0,0.06028 -0.346196,0.150428 -0.767074,0.1803 -1.128206,0.120556 -1.233826,0.330727 -0.496624,0.992715 0.346197,0.300856 0.993249,0.767074 1.4594682,1.023121 l 0.842287,0.481155 -0.391005,-0.496624 c -0.225641,-0.270983 -0.6918602,-0.69186 -1.0529932,-0.917502 -0.361133,-0.225641 -0.647052,-0.466218 -0.647052,-0.526496 0,-0.06028 0.255514,-0.165364 0.571839,-0.210705 0.8422872,-0.150428 1.0828652,-0.225642 1.0828652,-0.376069 0,-0.225642 -1.5192122,-1.368784 -2.2414782,-1.685109 -0.616646,-0.285919 -0.69186,-0.406475 -1.489339,-2.045708 -0.70733,-1.504276 -0.992715,-1.925686 -1.895281,-2.828252 -1.158079,-1.158079 -1.955558,-1.654703 -2.978679,-1.80513 -0.346197,-0.06028 -0.827352,-0.240578 -1.038057,-0.391005 -0.496624,-0.376069 -1.504275,-0.511561 -1.745386,-0.255514 z"
       id="path9135"
       style="fill:#ffffff" /></g></svg>
