<?xml version="1.0" encoding="UTF-8" standalone="no"?>
<svg
   width="64"
   height="64"
   viewBox="0 0 6.963026 6.9632"
   preserveAspectRatio="xMidYMid"
   version="1.1"
   id="svg8"
   sodipodi:docname="trpc - Copy.svg"
   inkscape:version="1.2.2 (732a01da63, 2022-12-09)"
   xml:space="preserve"
   xmlns:inkscape="http://www.inkscape.org/namespaces/inkscape"
   xmlns:sodipodi="http://sodipodi.sourceforge.net/DTD/sodipodi-0.dtd"
   xmlns="http://www.w3.org/2000/svg"
   xmlns:svg="http://www.w3.org/2000/svg"><defs
     id="defs12"><path
       d="M1.253 280.732l1.605-3.131 99.353-188.518-44.15-83.475C54.392-1.283 45.074.474 43.87 8.188L1.253 280.732z"
       id="a" /><filter
       x="-0.41601458"
       y="-0.15030569"
       width="1.8320292"
       height="1.3006114"
       filterUnits="objectBoundingBox"
       id="b"><feGaussianBlur
         stdDeviation="17.5"
         in="SourceAlpha"
         result="shadowBlurInner1"
         id="feGaussianBlur8916" /><feOffset
         in="shadowBlurInner1"
         result="shadowOffsetInner1"
         id="feOffset8918" /><feComposite
         in="shadowOffsetInner1"
         in2="SourceAlpha"
         operator="arithmetic"
         k2="-1"
         k3="1"
         result="shadowInnerInner1"
         id="feComposite8920" /><feColorMatrix
         values="0 0 0 0 0 0 0 0 0 0 0 0 0 0 0 0 0 0 0.06 0"
         in="shadowInnerInner1"
         id="feColorMatrix8922" /></filter><path
       d="M134.417 148.974l32.039-32.812-32.039-61.007c-3.042-5.791-10.433-6.398-13.443-.59l-17.705 34.109-.53 1.744 31.678 58.556z"
       id="c" /><filter
       x="-0.13183295"
       y="-0.17669426"
       width="1.2793603"
       height="1.2619949"
       filterUnits="objectBoundingBox"
       id="d"><feGaussianBlur
         stdDeviation="3.5"
         in="SourceAlpha"
         result="shadowBlurInner1"
         id="feGaussianBlur8926" /><feOffset
         dx="1"
         dy="-9"
         in="shadowBlurInner1"
         result="shadowOffsetInner1"
         id="feOffset8928" /><feComposite
         in="shadowOffsetInner1"
         in2="SourceAlpha"
         operator="arithmetic"
         k2="-1"
         k3="1"
         result="shadowInnerInner1"
         id="feComposite8930" /><feColorMatrix
         values="0 0 0 0 0 0 0 0 0 0 0 0 0 0 0 0 0 0 0.09 0"
         in="shadowInnerInner1"
         id="feColorMatrix8932" /></filter></defs><sodipodi:namedview
     id="namedview10"
     pagecolor="#ffffff"
     bordercolor="#000000"
     borderopacity="0.25"
     inkscape:showpageshadow="2"
     inkscape:pageopacity="0.0"
     inkscape:pagecheckerboard="0"
     inkscape:deskcolor="#d1d1d1"
     showgrid="false"
     showguides="true"
     inkscape:zoom="7.9614708"
     inkscape:cx="-1.8212715"
     inkscape:cy="52.251652"
     inkscape:window-width="1920"
     inkscape:window-height="1009"
     inkscape:window-x="-8"
     inkscape:window-y="-8"
     inkscape:window-maximized="1"
     inkscape:current-layer="svg8" /><style
     id="style8834">.st0{fill:#007acc}.st1{fill:#fff}</style><path
     d="m 3.339,1.3067385 c -0.0094,8.51e-4 -0.03914,0.0038 -0.06594,0.006 -0.618128,0.05572 -1.197119,0.389198 -1.563827,0.901748 -0.204199,0.284987 -0.334802,0.608255 -0.38415,0.950664 -0.01744,0.119524 -0.01957,0.154829 -0.01957,0.316888 0,0.16206 0.0021,0.197364 0.01957,0.316888 0.118266,0.817103 0.699808,1.503623 1.488529,1.757984 0.141238,0.04551 0.290133,0.07656 0.459448,0.09528 0.06594,0.0072 0.350968,0.0072 0.416907,0 0.292261,-0.03233 0.539853,-0.104637 0.784041,-0.229265 0.03744,-0.01914 0.04467,-0.02425 0.03956,-0.0285 -0.0034,-0.0026 -0.162934,-0.216505 -0.354371,-0.475119 L 3.811207,4.4492915 3.375156,3.8040305 C 3.135222,3.4492865 2.937829,3.1591955 2.936127,3.1591955 c -0.0017,-4.25e-4 -0.0034,0.286263 -0.0043,0.636328 -0.0013,0.612934 -0.0017,0.637604 -0.0094,0.652066 -0.01106,0.02084 -0.01957,0.02935 -0.03744,0.03871 -0.01361,0.0068 -0.02552,0.0081 -0.08976,0.0081 h -0.0736 l -0.01957,-0.01234 c -0.01276,-0.0081 -0.02212,-0.01872 -0.0285,-0.03105 l -0.0089,-0.01914 8.51e-4,-0.852832 0.0013,-0.853258 0.01319,-0.01659 c 0.0068,-0.0089 0.02127,-0.02042 0.03148,-0.02595 0.01744,-0.0085 0.02425,-0.0094 0.09785,-0.0094 0.08678,0 0.101249,0.0034 0.123796,0.02807 0.0064,0.0068 0.242486,0.362401 0.524962,0.790731 0.282476,0.42833 0.668753,1.013191 0.858489,1.300304 l 0.344586,0.521908 0.01744,-0.01149 c 0.154426,-0.100383 0.317785,-0.243301 0.447112,-0.392175 0.275243,-0.316037 0.452642,-0.701407 0.5122,-1.112298 0.01744,-0.119524 0.01957,-0.154828 0.01957,-0.316888 0,-0.162059 -0.0021,-0.197364 -0.01957,-0.316888 -0.118266,-0.817103 -0.699809,-1.503622 -1.488529,-1.757983 -0.139111,-0.04509 -0.287155,-0.07614 -0.453067,-0.09485 -0.04084,-0.0043 -0.32204,-0.0089 -0.357349,-0.0055 z m 0.89082,1.316042 c 0.02042,0.01021 0.03701,0.02978 0.04297,0.05019 0.0034,0.01106 0.0043,0.247555 0.0034,0.780523 L 4.27489,4.2182775 4.140034,4.0115565 4.004751,3.8048345 v -0.555936 c 0,-0.359423 0.0017,-0.561466 0.0043,-0.571249 0.0068,-0.02382 0.0217,-0.04254 0.04212,-0.05359 0.01744,-0.0089 0.02382,-0.0098 0.09061,-0.0098 0.06296,0 0.07402,8.51e-4 0.08806,0.0085 z"
     fill="#000000"
     id="path1064"
     style="stroke-width:0.017;fill:#ffffff" /></svg>
