<?xml version="1.0" encoding="UTF-8" standalone="no"?>
<svg
   width="64"
   height="64"
   viewBox="0 0 6.963026 6.9632"
   preserveAspectRatio="xMidYMid"
   version="1.1"
   id="svg8"
   sodipodi:docname="phone.svg"
   inkscape:version="1.2.2 (732a01da63, 2022-12-09)"
   xml:space="preserve"
   xmlns:inkscape="http://www.inkscape.org/namespaces/inkscape"
   xmlns:sodipodi="http://sodipodi.sourceforge.net/DTD/sodipodi-0.dtd"
   xmlns="http://www.w3.org/2000/svg"
   xmlns:svg="http://www.w3.org/2000/svg"><defs
     id="defs12"><path
       d="M1.253 280.732l1.605-3.131 99.353-188.518-44.15-83.475C54.392-1.283 45.074.474 43.87 8.188L1.253 280.732z"
       id="a" /><filter
       x="-0.41601458"
       y="-0.15030569"
       width="1.8320292"
       height="1.3006114"
       filterUnits="objectBoundingBox"
       id="b"><feGaussianBlur
         stdDeviation="17.5"
         in="SourceAlpha"
         result="shadowBlurInner1"
         id="feGaussianBlur8916" /><feOffset
         in="shadowBlurInner1"
         result="shadowOffsetInner1"
         id="feOffset8918" /><feComposite
         in="shadowOffsetInner1"
         in2="SourceAlpha"
         operator="arithmetic"
         k2="-1"
         k3="1"
         result="shadowInnerInner1"
         id="feComposite8920" /><feColorMatrix
         values="0 0 0 0 0 0 0 0 0 0 0 0 0 0 0 0 0 0 0.06 0"
         in="shadowInnerInner1"
         id="feColorMatrix8922" /></filter><path
       d="M134.417 148.974l32.039-32.812-32.039-61.007c-3.042-5.791-10.433-6.398-13.443-.59l-17.705 34.109-.53 1.744 31.678 58.556z"
       id="c" /><filter
       x="-0.13183295"
       y="-0.17669426"
       width="1.2793603"
       height="1.2619949"
       filterUnits="objectBoundingBox"
       id="d"><feGaussianBlur
         stdDeviation="3.5"
         in="SourceAlpha"
         result="shadowBlurInner1"
         id="feGaussianBlur8926" /><feOffset
         dx="1"
         dy="-9"
         in="shadowBlurInner1"
         result="shadowOffsetInner1"
         id="feOffset8928" /><feComposite
         in="shadowOffsetInner1"
         in2="SourceAlpha"
         operator="arithmetic"
         k2="-1"
         k3="1"
         result="shadowInnerInner1"
         id="feComposite8930" /><feColorMatrix
         values="0 0 0 0 0 0 0 0 0 0 0 0 0 0 0 0 0 0 0.09 0"
         in="shadowInnerInner1"
         id="feColorMatrix8932" /></filter></defs><sodipodi:namedview
     id="namedview10"
     pagecolor="#ffffff"
     bordercolor="#000000"
     borderopacity="0.25"
     inkscape:showpageshadow="2"
     inkscape:pageopacity="0.0"
     inkscape:pagecheckerboard="0"
     inkscape:deskcolor="#d1d1d1"
     showgrid="false"
     showguides="true"
     inkscape:zoom="5.62961"
     inkscape:cx="71.49696"
     inkscape:cy="28.776416"
     inkscape:window-width="1920"
     inkscape:window-height="1009"
     inkscape:window-x="-8"
     inkscape:window-y="-8"
     inkscape:window-maximized="1"
     inkscape:current-layer="svg8" /><rect
     style="fill:#27384c;fill-opacity:1;stroke-width:0.0939266"
     id="rect370"
     width="6.9632001"
     height="6.9632001"
     x="-8.7e-05"
     y="0" /><g
     style="fill:#00c900;fill-opacity:1"
     id="g8779"
     transform="matrix(0.00864561,0,0,0.00863254,1.2632963,1.2789509)"><path
       d="M 80.034,4.42 C 70.279,5.496 59.284,9 49.638,14.012 26.948,25.977 10.078,49.259 5.605,74.912 4.635,80.356 4.581,87.686 4.581,257.077 v 176.505 l 1.24,5.497 c 7.76,35.086 32.552,59.878 67.638,67.638 l 5.497,1.24 h 354.628 l 5.497,-1.24 c 35.085,-7.76 59.877,-32.552 67.638,-67.638 l 1.239,-5.497 V 257.078 c 0,-169.391 -0.054,-176.721 -1.024,-182.164 -1.347,-7.87 -4.042,-15.791 -8.138,-23.983 C 486.023,25.223 460.369,7.437 431.59,4.311 425.014,3.611 86.393,3.665 80.034,4.419 Z m 192.565,89.626 c 18.54,2.318 33.523,6.791 49.961,14.821 16.168,7.923 26.516,15.414 40.205,29.05 12.827,12.88 19.942,22.636 27.487,37.78 10.51,21.127 16.492,46.241 17.515,73.89 0.378,9.43 0.109,11.533 -2.048,14.227 -4.095,5.229 -13.096,4.366 -16.168,-1.508 -0.97,-1.94 -1.24,-3.61 -1.563,-11.157 -0.54,-11.587 -1.347,-19.078 -2.964,-28.025 -6.36,-35.085 -23.175,-63.11 -50.015,-83.213 -22.366,-16.815 -45.487,-25.008 -75.775,-26.786 -10.24,-0.593 -12.019,-0.97 -14.336,-2.748 -4.312,-3.396 -4.527,-11.372 -0.378,-15.09 2.533,-2.319 4.312,-2.642 13.097,-2.372 4.581,0.161 11.317,0.7 14.982,1.132 z m -123.203,5.821 c 1.887,0.647 4.797,2.156 6.468,3.234 10.24,6.79 38.75,43.277 48.074,61.494 5.335,10.401 7.114,18.108 5.444,23.821 -1.726,6.144 -4.581,9.378 -17.355,19.672 -5.12,4.15 -9.917,8.407 -10.67,9.539 -1.941,2.803 -3.505,8.3 -3.505,12.18 0.055,9 5.875,25.33 13.529,37.888 5.927,9.755 16.545,22.258 27.054,31.852 12.342,11.318 23.229,19.024 35.517,25.115 15.791,7.868 25.439,9.863 32.499,6.575 1.778,-0.808 3.664,-1.886 4.258,-2.37 0.538,-0.486 4.688,-5.552 9.216,-11.157 8.73,-10.995 10.724,-12.773 16.707,-14.821 7.6,-2.587 15.36,-1.887 23.174,2.101 5.929,3.073 18.864,11.103 27.217,16.923 10.994,7.707 34.492,26.894 37.673,30.721 5.605,6.898 6.575,15.736 2.802,25.492 -3.988,10.293 -19.51,29.588 -30.343,37.834 -9.809,7.438 -16.76,10.293 -25.923,10.725 -7.545,0.377 -10.67,-0.27 -20.318,-4.258 -75.668,-31.205 -136.084,-77.77 -184.051,-141.743 -25.06,-33.415 -44.14,-68.069 -57.183,-104.017 -7.598,-20.965 -7.975,-30.073 -1.724,-40.798 2.695,-4.527 14.175,-15.737 22.528,-21.989 13.905,-10.348 20.319,-14.175 25.439,-15.252 3.503,-0.755 9.592,-0.162 13.473,1.24 z m 126.922,33.253 c 32.715,4.796 58.045,19.995 74.645,44.679 9.324,13.905 15.144,30.235 17.138,47.75 0.7,6.414 0.7,18.11 -0.053,20.05 -0.702,1.832 -2.965,4.311 -4.906,5.335 -2.101,1.078 -6.574,0.97 -9.053,-0.324 -4.15,-2.101 -5.39,-5.443 -5.39,-14.497 0,-13.959 -3.611,-28.672 -9.862,-40.098 -7.115,-13.042 -17.462,-23.821 -30.073,-31.313 -10.833,-6.467 -26.84,-11.264 -41.446,-12.45 -5.282,-0.43 -8.192,-1.508 -10.186,-3.826 -3.072,-3.503 -3.396,-8.246 -0.809,-12.18 2.803,-4.366 7.114,-5.066 19.995,-3.126 z m 11.48,40.69 c 10.617,2.264 18.756,6.306 25.708,12.828 8.946,8.46 13.851,18.7 16.006,33.414 1.456,9.593 0.863,13.366 -2.533,16.492 -3.18,2.91 -9.053,3.018 -12.611,0.27 -2.587,-1.941 -3.395,-3.989 -3.988,-9.54 -0.7,-7.384 -1.994,-12.557 -4.203,-17.354 -4.744,-10.186 -13.097,-15.468 -27.217,-17.193 -6.63,-0.808 -8.624,-1.563 -10.78,-4.095 -3.934,-4.69 -2.425,-12.288 3.018,-15.091 2.049,-1.024 2.911,-1.132 7.438,-0.862 2.802,0.161 6.953,0.646 9.162,1.131 z"
       id="path8770"
       style="fill:#00c900;fill-opacity:1" /></g><style
     id="style8834">.st0{fill:#007acc}.st1{fill:#fff}</style></svg>
