<?xml version="1.0" encoding="UTF-8" standalone="no"?>
<svg
   width="64"
   height="64"
   viewBox="0 0 6.963026 6.9632"
   preserveAspectRatio="xMidYMid"
   version="1.1"
   id="svg8"
   sodipodi:docname="prisma.svg"
   inkscape:version="1.2.2 (732a01da63, 2022-12-09)"
   xml:space="preserve"
   xmlns:inkscape="http://www.inkscape.org/namespaces/inkscape"
   xmlns:sodipodi="http://sodipodi.sourceforge.net/DTD/sodipodi-0.dtd"
   xmlns="http://www.w3.org/2000/svg"
   xmlns:svg="http://www.w3.org/2000/svg"><defs
     id="defs12"><path
       d="M1.253 280.732l1.605-3.131 99.353-188.518-44.15-83.475C54.392-1.283 45.074.474 43.87 8.188L1.253 280.732z"
       id="a" /><filter
       x="-0.41601458"
       y="-0.15030569"
       width="1.8320292"
       height="1.3006114"
       filterUnits="objectBoundingBox"
       id="b"><feGaussianBlur
         stdDeviation="17.5"
         in="SourceAlpha"
         result="shadowBlurInner1"
         id="feGaussianBlur8916" /><feOffset
         in="shadowBlurInner1"
         result="shadowOffsetInner1"
         id="feOffset8918" /><feComposite
         in="shadowOffsetInner1"
         in2="SourceAlpha"
         operator="arithmetic"
         k2="-1"
         k3="1"
         result="shadowInnerInner1"
         id="feComposite8920" /><feColorMatrix
         values="0 0 0 0 0 0 0 0 0 0 0 0 0 0 0 0 0 0 0.06 0"
         in="shadowInnerInner1"
         id="feColorMatrix8922" /></filter><path
       d="M134.417 148.974l32.039-32.812-32.039-61.007c-3.042-5.791-10.433-6.398-13.443-.59l-17.705 34.109-.53 1.744 31.678 58.556z"
       id="c" /><filter
       x="-0.13183295"
       y="-0.17669426"
       width="1.2793603"
       height="1.2619949"
       filterUnits="objectBoundingBox"
       id="d"><feGaussianBlur
         stdDeviation="3.5"
         in="SourceAlpha"
         result="shadowBlurInner1"
         id="feGaussianBlur8926" /><feOffset
         dx="1"
         dy="-9"
         in="shadowBlurInner1"
         result="shadowOffsetInner1"
         id="feOffset8928" /><feComposite
         in="shadowOffsetInner1"
         in2="SourceAlpha"
         operator="arithmetic"
         k2="-1"
         k3="1"
         result="shadowInnerInner1"
         id="feComposite8930" /><feColorMatrix
         values="0 0 0 0 0 0 0 0 0 0 0 0 0 0 0 0 0 0 0.09 0"
         in="shadowInnerInner1"
         id="feColorMatrix8932" /></filter></defs><sodipodi:namedview
     id="namedview10"
     pagecolor="#ffffff"
     bordercolor="#000000"
     borderopacity="0.25"
     inkscape:showpageshadow="2"
     inkscape:pageopacity="0.0"
     inkscape:pagecheckerboard="0"
     inkscape:deskcolor="#d1d1d1"
     showgrid="false"
     showguides="true"
     inkscape:zoom="5.62961"
     inkscape:cx="73.273282"
     inkscape:cy="65.191017"
     inkscape:window-width="1920"
     inkscape:window-height="1009"
     inkscape:window-x="-8"
     inkscape:window-y="-8"
     inkscape:window-maximized="1"
     inkscape:current-layer="svg8" /><rect
     style="fill:#27384c;fill-opacity:1;stroke-width:0.0939266"
     id="rect370"
     width="6.9632001"
     height="6.9632001"
     x="-8.7e-05"
     y="0" /><g
     style="fill:#ffffff"
     id="g8790"
     transform="matrix(0.11662325,0,0,0.11662325,-5.6907132,0.64039794)"><path
       d="m 94.865322,34.684803 -13.757,-29.2149998 a 2.208,2.208 0 0 0 -1.88,-1.257 2.183,2.183 0 0 0 -2.01,1.042 l -14.921,24.1669998 a 2.26,2.26 0 0 0 0.025,2.426 l 7.295,11.297 a 2.346,2.346 0 0 0 2.635,0.969 l 21.17,-6.262 a 2.32,2.32 0 0 0 1.457,-1.258 2.27,2.27 0 0 0 -0.013,-1.91 z m -3.08,1.253 -17.964,5.312 c -0.548,0.163 -1.074,-0.312 -0.96,-0.865 l 6.418,-30.7309998 c 0.12,-0.575 0.914,-0.666 1.165,-0.134 l 11.881,25.2299998 a 0.858,0.858 0 0 1 -0.541,1.188 z"
       clip-rule="evenodd"
       fill-rule="evenodd"
       id="path8781"
       style="fill:#ffffff" /></g><style
     id="style8834">.st0{fill:#007acc}.st1{fill:#fff}</style></svg>
