<?xml version="1.0" encoding="UTF-8" standalone="no"?>
<svg
   width="64"
   height="64"
   viewBox="0 0 6.963026 6.9632"
   preserveAspectRatio="xMidYMid"
   version="1.1"
   id="svg8"
   sodipodi:docname="react.svg"
   inkscape:version="1.2.2 (732a01da63, 2022-12-09)"
   xml:space="preserve"
   xmlns:inkscape="http://www.inkscape.org/namespaces/inkscape"
   xmlns:sodipodi="http://sodipodi.sourceforge.net/DTD/sodipodi-0.dtd"
   xmlns="http://www.w3.org/2000/svg"
   xmlns:svg="http://www.w3.org/2000/svg"><defs
     id="defs12"><path
       d="M1.253 280.732l1.605-3.131 99.353-188.518-44.15-83.475C54.392-1.283 45.074.474 43.87 8.188L1.253 280.732z"
       id="a" /><filter
       x="-0.41601458"
       y="-0.15030569"
       width="1.8320292"
       height="1.3006114"
       filterUnits="objectBoundingBox"
       id="b"><feGaussianBlur
         stdDeviation="17.5"
         in="SourceAlpha"
         result="shadowBlurInner1"
         id="feGaussianBlur8916" /><feOffset
         in="shadowBlurInner1"
         result="shadowOffsetInner1"
         id="feOffset8918" /><feComposite
         in="shadowOffsetInner1"
         in2="SourceAlpha"
         operator="arithmetic"
         k2="-1"
         k3="1"
         result="shadowInnerInner1"
         id="feComposite8920" /><feColorMatrix
         values="0 0 0 0 0 0 0 0 0 0 0 0 0 0 0 0 0 0 0.06 0"
         in="shadowInnerInner1"
         id="feColorMatrix8922" /></filter><path
       d="M134.417 148.974l32.039-32.812-32.039-61.007c-3.042-5.791-10.433-6.398-13.443-.59l-17.705 34.109-.53 1.744 31.678 58.556z"
       id="c" /><filter
       x="-0.13183295"
       y="-0.17669426"
       width="1.2793603"
       height="1.2619949"
       filterUnits="objectBoundingBox"
       id="d"><feGaussianBlur
         stdDeviation="3.5"
         in="SourceAlpha"
         result="shadowBlurInner1"
         id="feGaussianBlur8926" /><feOffset
         dx="1"
         dy="-9"
         in="shadowBlurInner1"
         result="shadowOffsetInner1"
         id="feOffset8928" /><feComposite
         in="shadowOffsetInner1"
         in2="SourceAlpha"
         operator="arithmetic"
         k2="-1"
         k3="1"
         result="shadowInnerInner1"
         id="feComposite8930" /><feColorMatrix
         values="0 0 0 0 0 0 0 0 0 0 0 0 0 0 0 0 0 0 0.09 0"
         in="shadowInnerInner1"
         id="feColorMatrix8932" /></filter></defs><sodipodi:namedview
     id="namedview10"
     pagecolor="#ffffff"
     bordercolor="#000000"
     borderopacity="0.25"
     inkscape:showpageshadow="2"
     inkscape:pageopacity="0.0"
     inkscape:pagecheckerboard="0"
     inkscape:deskcolor="#d1d1d1"
     showgrid="false"
     showguides="true"
     inkscape:zoom="5.62961"
     inkscape:cx="73.273282"
     inkscape:cy="28.776416"
     inkscape:window-width="1920"
     inkscape:window-height="1009"
     inkscape:window-x="-8"
     inkscape:window-y="-8"
     inkscape:window-maximized="1"
     inkscape:current-layer="svg8" /><path
     d="m 4.9358662,2.7576858 c -0.04709,-0.016264 -0.09608,-0.031651 -0.146445,-0.046156 0.0082,-0.033785 0.01571,-0.067125 0.02261,-0.099899 0.110906,-0.5381833 0.03831,-0.9717404 -0.209179,-1.114486 -0.237376,-0.1368803 -0.625529,0.00582 -1.017576,0.3470206 -0.03768,0.032843 -0.07549,0.067538 -0.113292,0.103949 -0.02512,-0.024114 -0.05023,-0.04735 -0.07536,-0.069631 -0.410885,-0.3648111 -0.822701,-0.5185464 -1.069992,-0.3753925 -0.237125,0.1372759 -0.307332,0.5448649 -0.207547,1.0549003 0.0095,0.049296 0.02073,0.099572 0.03392,0.1507272 -0.0584,0.016578 -0.114537,0.034225 -0.168424,0.052938 -0.481722,0.16794 -0.789337,0.4311444 -0.789337,0.704162 0,0.2819684 0.330254,0.5647908 0.831976,0.7362801 0.03956,0.013564 0.0807,0.026312 0.12302,0.038495 -0.01381,0.055325 -0.02574,0.1095313 -0.0358,0.1624077 -0.09514,0.5011891 -0.02073,0.8991468 0.215648,1.0355523 0.244283,0.1408679 0.654245,-0.00381 1.053457,-0.3528796 0.0314,-0.027568 0.06324,-0.056832 0.09495,-0.087502 0.04082,0.039626 0.0822,0.077065 0.12302,0.1122134 0.386707,0.3327531 0.768587,0.4671151 1.004864,0.3303291 0.244033,-0.1412762 0.323346,-0.5687783 0.220357,-1.0889078 -0.0082,-0.039752 -0.01695,-0.080306 -0.027,-0.1216076 0.02888,-0.00848 0.05715,-0.017332 0.08459,-0.026438 0.521599,-0.1728196 0.860965,-0.4521943 0.860965,-0.737931 0,-0.2740056 -0.317569,-0.5389808 -0.808962,-0.7081498 z m -0.113098,1.2615867 c -0.02512,0.00822 -0.05023,0.016202 -0.07642,0.023926 -0.05777,-0.182296 -0.135266,-0.3761341 -0.230406,-0.5764087 0.09074,-0.195502 0.165473,-0.3868656 0.221425,-0.5679744 0.04647,0.013438 0.09175,0.027693 0.135267,0.04264 0.421059,0.1449435 0.677852,0.359241 0.677852,0.5243678 0,0.1758839 -0.277378,0.4042104 -0.72772,0.5534368 z m -0.186887,0.370287 c 0.04521,0.2299906 0.05213,0.4379329 0.02198,0.6004975 -0.027,0.1460677 -0.08158,0.2434483 -0.148956,0.2824582 -0.143367,0.082994 -0.450009,-0.024867 -0.780714,-0.3094612 -0.03768,-0.032655 -0.07611,-0.067452 -0.114421,-0.1043134 0.128234,-0.140215 0.25634,-0.3032191 0.381371,-0.4842463 0.219981,-0.01953 0.427779,-0.051431 0.616172,-0.094988 0.0095,0.037427 0.01759,0.074158 0.02449,0.1100592 z m -1.889743,0.8686064 c -0.140101,0.049484 -0.251693,0.050866 -0.319138,0.011997 -0.143492,-0.082779 -0.20315,-0.4023014 -0.121762,-0.8309126 0.0095,-0.049108 0.02073,-0.099516 0.03328,-0.1510474 0.186383,0.041195 0.392674,0.070873 0.613157,0.088746 0.125912,0.17714 0.257722,0.3399684 0.390539,0.4825382 -0.02888,0.028007 -0.05778,0.054697 -0.08666,0.079835 -0.176525,0.1543004 -0.353426,0.2637821 -0.509352,0.3188432 z M 2.0898332,4.0181943 C 1.8679692,3.9423654 1.6847882,3.8438174 1.5591922,3.7362699 1.4463442,3.6396308 1.3893872,3.5436817 1.3893872,3.4658314 c 0,-0.1656732 0.246983,-0.376994 0.658955,-0.5206189 0.05023,-0.017395 0.102294,-0.033848 0.156617,-0.049296 0.05715,0.1852033 0.131625,0.3788276 0.22174,0.5746311 -0.09131,0.1987108 -0.167043,0.3954248 -0.224565,0.5827946 -0.03893,-0.011115 -0.07624,-0.022858 -0.11228,-0.035167 z m 0.219981,-1.4975236 c -0.08552,-0.4369845 -0.02888,-0.7666334 0.114161,-0.8493543 0.152222,-0.088124 0.488817,0.037553 0.843555,0.3525152 0.02261,0.020158 0.04521,0.041195 0.06826,0.063012 -0.132189,0.1419418 -0.262809,0.3035456 -0.387589,0.4796432 -0.213951,0.019844 -0.418798,0.051683 -0.607128,0.09436 -0.01193,-0.047663 -0.02261,-0.094423 -0.0314,-0.1401772 z m 1.962593,0.4846167 c -0.04521,-0.077763 -0.09124,-0.1536912 -0.138344,-0.2275351 0.145189,0.018337 0.284286,0.042702 0.414843,0.072519 -0.03894,0.125671 -0.08811,0.2570752 -0.145628,0.3917827 -0.04145,-0.078359 -0.0849,-0.1573586 -0.130871,-0.2367666 z M 3.4720682,2.225751 c 0.08967,0.097129 0.179413,0.2055685 0.26777,0.3232265 -0.08899,-0.00429 -0.1791,-0.00641 -0.269905,-0.00641 -0.08999,0 -0.179413,0.00191 -0.267832,0.00625 0.08842,-0.1165553 0.178974,-0.2248493 0.27003,-0.3230965 z m -0.805469,0.7808822 c -0.04521,0.077982 -0.08779,0.1565548 -0.128416,0.2352719 -0.05652,-0.1342365 -0.104991,-0.2662312 -0.144559,-0.3936919 0.129802,-0.029075 0.268272,-0.052812 0.412455,-0.070811 -0.04773,0.074534 -0.09438,0.151016 -0.139474,0.2292119 z m 0.143619,1.1614964 c -0.14902,-0.016642 -0.289561,-0.039186 -0.419301,-0.067407 0.04019,-0.1297339 0.08967,-0.2645481 0.147449,-0.4016735 0.04082,0.07866 0.08377,0.1572646 0.128986,0.2354163 h 7e-6 c 0.04584,0.079621 0.09383,0.15761 0.142859,0.2336642 z m 0.667213,0.5514964 c -0.09213,-0.099397 -0.183997,-0.2093427 -0.273735,-0.3276097 0.08711,0.00333 0.17596,0.00515 0.266199,0.00515 0.09275,0 0.184437,-0.00191 0.274678,-0.00611 -0.08861,0.1203897 -0.178032,0.2305119 -0.267078,0.3285454 z m 0.927712,-1.027567 c 0.06092,0.1386073 0.112099,0.2727183 0.152787,0.4002417 -0.131938,0.03008 -0.274363,0.054319 -0.42445,0.072342 0.04709,-0.074848 0.09389,-0.1520837 0.139661,-0.2315229 0.04647,-0.080368 0.09036,-0.1608628 0.132002,-0.2410681 z m -0.300362,0.143964 c -0.07115,0.1233222 -0.144121,0.2410429 -0.218285,0.3521636 -0.135015,0.00961 -0.274489,0.014631 -0.416663,0.014631 -0.14161,0 -0.279325,-0.00429 -0.411954,-0.012999 -0.07712,-0.1125769 -0.151719,-0.2306429 -0.222366,-0.3527155 h 1.8e-5 C 2.7650612,3.7153632 2.7002032,3.5925936 2.6414232,3.470521 2.7004532,3.3481534 2.7648842,3.2252517 2.8349662,3.1037318 l -1.8e-5,2.39e-5 c 0.07027,-0.1218398 0.144183,-0.2393413 0.220608,-0.3512154 0.135329,-0.010233 0.27405,-0.015574 0.414277,-0.015574 h 7e-6 c 0.140855,0 0.279763,0.0054 0.415093,0.0157 0.07523,0.1110578 0.148704,0.2281694 0.219227,0.3500285 0.07133,0.1232275 0.136899,0.2453195 0.196117,0.365056 -0.05903,0.121797 -0.124459,0.2451187 -0.195489,0.3682901 z m 0.400964,-2.1704872 c 0.152347,0.087861 0.211629,0.4422157 0.11586,0.9068689 -0.0061,0.02964 -0.01319,0.059846 -0.02073,0.09046 -0.18877,-0.043581 -0.393742,-0.075966 -0.608322,-0.096099 -0.12503,-0.1780317 -0.254582,-0.3398867 -0.384635,-0.4800073 0.03516,-0.03366 0.06989,-0.065706 0.104615,-0.095967 0.335914,-0.2923239 0.649853,-0.4077336 0.792894,-0.3252488 z m -1.035887,1.3940109 c 0.224376,0 0.406302,0.1818937 0.406302,0.4062889 0,0.2243766 -0.181926,0.4062829 -0.406302,0.4062829 -0.224376,0 -0.406302,-0.1819063 -0.406302,-0.4062829 0,-0.2243952 0.181926,-0.4062889 0.406302,-0.4062889 z"
     fill="#00d8ff"
     id="path8792"
     style="stroke-width:0.0177729" /><style
     id="style8834">.st0{fill:#007acc}.st1{fill:#fff}</style></svg>
