<?xml version="1.0" encoding="UTF-8" standalone="no"?>
<svg
   width="64"
   height="64"
   viewBox="0 0 6.963026 6.9632"
   preserveAspectRatio="xMidYMid"
   version="1.1"
   id="svg8"
   sodipodi:docname="sass.svg"
   inkscape:version="1.2.2 (732a01da63, 2022-12-09)"
   xml:space="preserve"
   xmlns:inkscape="http://www.inkscape.org/namespaces/inkscape"
   xmlns:sodipodi="http://sodipodi.sourceforge.net/DTD/sodipodi-0.dtd"
   xmlns="http://www.w3.org/2000/svg"
   xmlns:svg="http://www.w3.org/2000/svg"><defs
     id="defs12"><path
       d="M1.253 280.732l1.605-3.131 99.353-188.518-44.15-83.475C54.392-1.283 45.074.474 43.87 8.188L1.253 280.732z"
       id="a" /><filter
       x="-0.41601458"
       y="-0.15030569"
       width="1.8320292"
       height="1.3006114"
       filterUnits="objectBoundingBox"
       id="b"><feGaussianBlur
         stdDeviation="17.5"
         in="SourceAlpha"
         result="shadowBlurInner1"
         id="feGaussianBlur8916" /><feOffset
         in="shadowBlurInner1"
         result="shadowOffsetInner1"
         id="feOffset8918" /><feComposite
         in="shadowOffsetInner1"
         in2="SourceAlpha"
         operator="arithmetic"
         k2="-1"
         k3="1"
         result="shadowInnerInner1"
         id="feComposite8920" /><feColorMatrix
         values="0 0 0 0 0 0 0 0 0 0 0 0 0 0 0 0 0 0 0.06 0"
         in="shadowInnerInner1"
         id="feColorMatrix8922" /></filter><path
       d="M134.417 148.974l32.039-32.812-32.039-61.007c-3.042-5.791-10.433-6.398-13.443-.59l-17.705 34.109-.53 1.744 31.678 58.556z"
       id="c" /><filter
       x="-0.13183295"
       y="-0.17669426"
       width="1.2793603"
       height="1.2619949"
       filterUnits="objectBoundingBox"
       id="d"><feGaussianBlur
         stdDeviation="3.5"
         in="SourceAlpha"
         result="shadowBlurInner1"
         id="feGaussianBlur8926" /><feOffset
         dx="1"
         dy="-9"
         in="shadowBlurInner1"
         result="shadowOffsetInner1"
         id="feOffset8928" /><feComposite
         in="shadowOffsetInner1"
         in2="SourceAlpha"
         operator="arithmetic"
         k2="-1"
         k3="1"
         result="shadowInnerInner1"
         id="feComposite8930" /><feColorMatrix
         values="0 0 0 0 0 0 0 0 0 0 0 0 0 0 0 0 0 0 0.09 0"
         in="shadowInnerInner1"
         id="feColorMatrix8932" /></filter></defs><sodipodi:namedview
     id="namedview10"
     pagecolor="#ffffff"
     bordercolor="#000000"
     borderopacity="0.25"
     inkscape:showpageshadow="2"
     inkscape:pageopacity="0.0"
     inkscape:pagecheckerboard="0"
     inkscape:deskcolor="#d1d1d1"
     showgrid="false"
     showguides="true"
     inkscape:zoom="5.62961"
     inkscape:cx="102.76023"
     inkscape:cy="16.342162"
     inkscape:window-width="1920"
     inkscape:window-height="1009"
     inkscape:window-x="-8"
     inkscape:window-y="-8"
     inkscape:window-maximized="1"
     inkscape:current-layer="svg8" /> <path
     fill="#cf649a"
     d="m 5.5430937,3.5496208 c -0.177628,0.00102 -0.331423,0.043662 -0.460421,0.1071784 -0.04764,-0.094266 -0.09525,-0.1766364 -0.103197,-0.2381496 -0.009,-0.071446 -0.01975,-0.1151149 -0.009,-0.200442 0.01099,-0.085347 0.06052,-0.2064063 0.06052,-0.2163287 -0.001,-0.00892 -0.01099,-0.052591 -0.113116,-0.053584 -0.102188,-0.00102 -0.19053,0.019836 -0.200449,0.046637 -0.0099,0.026792 -0.02978,0.088314 -0.04268,0.1518186 -0.01795,0.093276 -0.20442,0.4237082 -0.310584,0.5973585 -0.03474,-0.067474 -0.06449,-0.1270122 -0.07046,-0.1746527 -0.009,-0.071435 -0.01975,-0.1151059 -0.009,-0.2004307 0.01099,-0.085347 0.06054,-0.206395 0.06054,-0.2163199 -9.9e-4,-0.00892 -0.01099,-0.05259 -0.113116,-0.053584 -0.10221,-0.00102 -0.190508,0.019836 -0.200448,0.046637 -0.0099,0.026793 -0.02087,0.090299 -0.04266,0.1518209 -0.02087,0.061522 -0.268922,0.613234 -0.333421,0.7571167 -0.03274,0.07343 -0.06151,0.1319734 -0.08235,0.171666 -0.02087,0.03969 -9.89e-4,0.00297 -0.0029,0.00695 -0.01795,0.033737 -0.02778,0.05259 -0.02778,0.05259 v 0.00102 c -0.01391,0.024807 -0.02877,0.048612 -0.03572,0.048612 -0.0049,0 -0.01481,-0.066483 0.002,-0.1577649 0.03671,-0.1915224 0.126018,-0.4901911 0.125031,-0.5011069 0,-0.00496 0.01683,-0.05756 -0.05756,-0.084344 -0.07243,-0.026793 -0.09824,0.017861 -0.104186,0.017861 -0.0061,0 -0.01099,0.015887 -0.01099,0.015887 0,0 0.08038,-0.3363762 -0.153797,-0.3363762 -0.146864,0 -0.349288,0.1597575 -0.449508,0.3056249 -0.0635,0.034728 -0.198451,0.1081495 -0.341348,0.1865498 -0.05457,0.029768 -0.11114,0.061522 -0.164726,0.090299 l -0.01097,-0.011929 c -0.283814,-0.3026482 -0.808735,-0.516982 -0.786906,-0.92382 0.0079,-0.1478514 0.05953,-0.5378208 1.008176,-1.0101502 0.776961,-0.3869938 1.399126,-0.2808189 1.507276,-0.044654 0.153798,0.3373786 -0.332417,0.9645045 -1.140129,1.0548036 -0.307609,0.034729 -0.469364,-0.084344 -0.510037,-0.1289981 -0.04266,-0.046637 -0.04862,-0.048621 -0.06449,-0.039693 -0.02581,0.013891 -0.0099,0.055569 0,0.080375 0.02381,0.062515 0.123056,0.1736513 0.291733,0.2292192 0.147852,0.048621 0.509045,0.075413 0.945652,-0.093274 0.489198,-0.1895278 0.871228,-0.715441 0.7591,-1.1550247 -0.114103,-0.4475217 -0.856344,-0.5943804 -1.557892,-0.3453166 -0.417765,0.1488431 -0.870248,0.3810382 -1.195718,0.685671 -0.386994,0.3611944 -0.448515,0.6767413 -0.422715,0.8077242 0.09029,0.4673675 0.734293,0.7720003 0.992287,0.99725 -0.01279,0.00693 -0.0248,0.013868 -0.03572,0.019836 -0.129002,0.063497 -0.620181,0.3205094 -0.743224,0.5923862 -0.138921,0.307609 0.02177,0.528901 0.129003,0.5586687 0.331425,0.092283 0.670788,-0.07343 0.85436,-0.3463085 0.182565,-0.2728793 0.160754,-0.6271258 0.0764,-0.7888702 l -0.0029,-0.00595 0.101223,-0.059537 c 0.0655,-0.038699 0.12999,-0.074422 0.186559,-0.105192 -0.03175,0.08633 -0.05457,0.1885335 -0.06646,0.3373785 -0.01391,0.1746527 0.05756,0.400884 0.151823,0.4901894 0.04167,0.038689 0.09128,0.039693 0.122046,0.039693 0.109144,0 0.158757,-0.090308 0.213351,-0.1984583 0.06747,-0.1319734 0.127006,-0.2847854 0.127006,-0.2847854 0,0 -0.07443,0.4137839 0.129002,0.4137839 0.07443,0 0.148839,-0.096253 0.182587,-0.1458656 v 0.00102 c 0,0 0.002,-0.00297 0.0061,-0.00992 a 0.35851392,0.35851392 0 0 0 0.01189,-0.018846 v -0.00198 c 0.02978,-0.051598 0.09624,-0.1696819 0.19549,-0.3651619 0.127993,-0.2520414 0.251049,-0.5675884 0.251049,-0.5675884 0,0 0.01189,0.077397 0.04862,0.2044092 0.02177,0.075424 0.06945,0.1577738 0.10616,0.2381497 -0.02978,0.041676 -0.04764,0.065502 -0.04764,0.065502 l 9.89e-4,0.00102 c -0.02381,0.031753 -0.0506,0.065499 -0.07838,0.099229 -0.101222,0.1210592 -0.222282,0.2589978 -0.238151,0.2986877 -0.01885,0.046628 -0.01481,0.08136 0.02177,0.1091533 0.02679,0.019836 0.07443,0.023805 0.125031,0.019836 0.09128,-0.00597 0.154808,-0.028775 0.186559,-0.042677 0.04961,-0.017861 0.106182,-0.044655 0.160754,-0.084344 0.09922,-0.073417 0.159759,-0.1776089 0.15379,-0.3165292 -0.0029,-0.076405 -0.02778,-0.1518208 -0.05854,-0.2232647 0.009,-0.012902 0.01795,-0.025809 0.02679,-0.039693 0.156777,-0.2292233 0.277836,-0.4812544 0.277836,-0.4812544 0,0 0.01189,0.077399 0.04863,0.2044114 0.01885,0.064498 0.05657,0.13496 0.09029,0.2044204 -0.146864,0.1200694 -0.239142,0.2589873 -0.270894,0.3502785 -0.05854,0.1686906 -0.01279,0.2450955 0.07342,0.2629571 0.03869,0.00794 0.09427,-0.00992 0.135937,-0.027785 0.05159,-0.016873 0.114103,-0.045657 0.171681,-0.088316 0.09923,-0.073429 0.19448,-0.175634 0.189521,-0.3135615 -0.0029,-0.063506 -0.01975,-0.1260203 -0.04266,-0.185558 0.125031,-0.051599 0.286763,-0.081367 0.492176,-0.05656 0.441568,0.051598 0.52889,0.3274549 0.512031,0.4425599 -0.01683,0.1151149 -0.109144,0.1786131 -0.13993,0.1984583 -0.03076,0.018849 -0.04068,0.025809 -0.0377,0.039693 0.004,0.020846 0.01795,0.019836 0.04465,0.015887 0.03671,-0.00597 0.232196,-0.094267 0.240135,-0.3066078 C 6.2614847,3.8444231 6.0025117,3.546736 5.5430817,3.549702 Z m -3.405534,1.1480786 c -0.145876,0.1597575 -0.35127,0.220287 -0.438592,0.1686883 -0.09427,-0.054576 -0.05756,-0.2897473 0.122046,-0.4594296 0.109144,-0.1031973 0.251049,-0.1984582 0.344324,-0.2570031 0.02087,-0.012902 0.0526,-0.031743 0.0903,-0.054576 0.0061,-0.00396 0.0099,-0.00595 0.0099,-0.00595 0.0069,-0.00398 0.01481,-0.00892 0.02282,-0.013889 0.06649,0.2421195 0.0029,0.4544695 -0.150836,0.6221656 z m 1.066711,-0.725363 c -0.0506,0.1240345 -0.157769,0.4425598 -0.222282,0.4246999 -0.05558,-0.014877 -0.08931,-0.2560112 -0.01099,-0.4941611 0.0397,-0.1200762 0.124044,-0.2629554 0.173657,-0.3185349 0.08038,-0.089306 0.167687,-0.1190755 0.189543,-0.082358 0.02581,0.04764 -0.09824,0.3929564 -0.12999,0.4703555 z m 0.880159,0.42073 c -0.02177,0.010933 -0.04167,0.018849 -0.0506,0.012902 -0.0069,-0.00398 0.009,-0.018849 0.009,-0.018849 0,0 0.110154,-0.1180835 0.153798,-0.1726578 0.02482,-0.031742 0.05457,-0.068459 0.08632,-0.1101447 v 0.011914 c 8e-6,0.1428817 -0.136927,0.2381398 -0.198455,0.2768394 z m 0.678716,-0.1547963 c -0.01593,-0.011916 -0.01391,-0.048623 0.0397,-0.1637293 0.02087,-0.045646 0.06846,-0.1220509 0.150836,-0.1944889 0.0099,0.029768 0.01593,0.058535 0.01481,0.085338 -9.91e-4,0.178611 -0.127994,0.245094 -0.205409,0.2728795 z"
     id="path8804"
     style="stroke-width:0.00992286" /><style
     id="style8834">.st0{fill:#007acc}.st1{fill:#fff}</style></svg>
