<?xml version="1.0" encoding="UTF-8" standalone="no"?>
<svg
   width="64"
   height="64"
   viewBox="0 0 6.963026 6.9632"
   preserveAspectRatio="xMidYMid"
   version="1.1"
   id="svg8"
   sodipodi:docname="trpc.svg"
   inkscape:version="1.2.2 (732a01da63, 2022-12-09)"
   xml:space="preserve"
   xmlns:inkscape="http://www.inkscape.org/namespaces/inkscape"
   xmlns:sodipodi="http://sodipodi.sourceforge.net/DTD/sodipodi-0.dtd"
   xmlns="http://www.w3.org/2000/svg"
   xmlns:svg="http://www.w3.org/2000/svg"><defs
     id="defs12"><path
       d="M1.253 280.732l1.605-3.131 99.353-188.518-44.15-83.475C54.392-1.283 45.074.474 43.87 8.188L1.253 280.732z"
       id="a" /><filter
       x="-0.41601458"
       y="-0.15030569"
       width="1.8320292"
       height="1.3006114"
       filterUnits="objectBoundingBox"
       id="b"><feGaussianBlur
         stdDeviation="17.5"
         in="SourceAlpha"
         result="shadowBlurInner1"
         id="feGaussianBlur8916" /><feOffset
         in="shadowBlurInner1"
         result="shadowOffsetInner1"
         id="feOffset8918" /><feComposite
         in="shadowOffsetInner1"
         in2="SourceAlpha"
         operator="arithmetic"
         k2="-1"
         k3="1"
         result="shadowInnerInner1"
         id="feComposite8920" /><feColorMatrix
         values="0 0 0 0 0 0 0 0 0 0 0 0 0 0 0 0 0 0 0.06 0"
         in="shadowInnerInner1"
         id="feColorMatrix8922" /></filter><path
       d="M134.417 148.974l32.039-32.812-32.039-61.007c-3.042-5.791-10.433-6.398-13.443-.59l-17.705 34.109-.53 1.744 31.678 58.556z"
       id="c" /><filter
       x="-0.13183295"
       y="-0.17669426"
       width="1.2793603"
       height="1.2619949"
       filterUnits="objectBoundingBox"
       id="d"><feGaussianBlur
         stdDeviation="3.5"
         in="SourceAlpha"
         result="shadowBlurInner1"
         id="feGaussianBlur8926" /><feOffset
         dx="1"
         dy="-9"
         in="shadowBlurInner1"
         result="shadowOffsetInner1"
         id="feOffset8928" /><feComposite
         in="shadowOffsetInner1"
         in2="SourceAlpha"
         operator="arithmetic"
         k2="-1"
         k3="1"
         result="shadowInnerInner1"
         id="feComposite8930" /><feColorMatrix
         values="0 0 0 0 0 0 0 0 0 0 0 0 0 0 0 0 0 0 0.09 0"
         in="shadowInnerInner1"
         id="feColorMatrix8932" /></filter></defs><sodipodi:namedview
     id="namedview10"
     pagecolor="#ffffff"
     bordercolor="#000000"
     borderopacity="0.25"
     inkscape:showpageshadow="2"
     inkscape:pageopacity="0.0"
     inkscape:pagecheckerboard="0"
     inkscape:deskcolor="#d1d1d1"
     showgrid="false"
     showguides="true"
     inkscape:zoom="5.62961"
     inkscape:cx="73.273282"
     inkscape:cy="28.776416"
     inkscape:window-width="1920"
     inkscape:window-height="1009"
     inkscape:window-x="-8"
     inkscape:window-y="-8"
     inkscape:window-maximized="1"
     inkscape:current-layer="svg8" /><rect
     style="fill:#27384c;fill-opacity:1;stroke-width:0.0939266"
     id="rect370"
     width="6.9632001"
     height="6.9632001"
     x="-8.7e-05"
     y="0" /><g
     id="g8832"
     transform="matrix(0.09083048,0,0,0.09083048,1.2998162,1.2886424)"><path
       fill="#398ccb"
       d="m 0.0818845,14.306185 c 0,-7.8607978 6.3635027,-14.2243005 14.2243005,-14.2243005 h 19.464831 c 7.860798,0 14.2243,6.3635027 14.2243,14.2243005 v 19.464831 c 0,7.860798 -6.363502,14.2243 -14.2243,14.2243 H 14.306185 c -7.8607978,0 -14.2243005,-6.363502 -14.2243005,-14.2243 z"
       id="path2-7"
       style="stroke-width:0.374324" /><path
       fill="#ffffff"
       d="m 24.001167,7.1191699 6.625531,3.8181021 v 2.096212 l 8.047959,4.679046 v 7.935662 l 2.171078,1.235269 v 7.711068 L 34.220204,38.41263 31.263047,36.690742 24.076033,40.845735 16.92645,36.728174 14.044158,38.41263 7.3811965,34.557097 V 26.883461 L 9.477409,25.685625 V 17.71253 l 7.860798,-4.566749 v -2.208509 z m 6.662963,7.9356621 v 3.593508 l -6.662963,3.818102 -6.625528,-3.818102 v -3.481211 l -6.176341,3.556075 v 5.989179 l 2.84486,-1.647024 6.662962,3.855534 v 7.673636 l -2.021348,1.160402 5.427693,3.106888 5.427693,-3.144319 -1.983915,-1.122971 v -7.673636 l 6.662961,-3.855534 2.769995,1.609591 v -5.951746 z m 2.69513,20.887261 v -4.716477 l -4.042695,-2.320808 v 4.679047 z m 5.764585,-7.037285 -4.042696,2.358239 v 4.679046 l 4.042696,-2.358238 z M 13.183214,35.942093 V 31.263047 L 9.1030858,28.904808 v 4.679047 z m 5.802017,-6.999852 -4.042696,2.320806 v 4.679046 l 4.042696,-2.320806 z m 15.234973,0.860945 4.080129,-2.35824 -4.080129,-2.320806 -4.042695,2.320806 z m -20.176046,-4.679046 -4.042696,2.320806 4.042696,2.35824 4.042695,-2.35824 z m 9.096066,-5.090803 v -4.679046 l -4.042696,-2.320807 v 4.679046 z m 5.802017,-7.037285 -4.080129,2.358239 v 4.679046 l 4.080129,-2.358239 z m -4.941074,0.860944 4.08013,-2.358239 -4.08013,-2.320807 -4.042694,2.320807 z"
       id="path4-4"
       style="stroke-width:0.374324" /></g><style
     id="style8834">.st0{fill:#007acc}.st1{fill:#fff}</style></svg>
