<?xml version="1.0" encoding="UTF-8" standalone="no"?>
<svg
   width="64"
   height="64"
   viewBox="0 0 6.963026 6.9632"
   preserveAspectRatio="xMidYMid"
   version="1.1"
   id="svg8"
   sodipodi:docname="typescript.svg"
   inkscape:version="1.2.2 (732a01da63, 2022-12-09)"
   xml:space="preserve"
   xmlns:inkscape="http://www.inkscape.org/namespaces/inkscape"
   xmlns:sodipodi="http://sodipodi.sourceforge.net/DTD/sodipodi-0.dtd"
   xmlns="http://www.w3.org/2000/svg"
   xmlns:svg="http://www.w3.org/2000/svg"><defs
     id="defs12"><path
       d="M1.253 280.732l1.605-3.131 99.353-188.518-44.15-83.475C54.392-1.283 45.074.474 43.87 8.188L1.253 280.732z"
       id="a" /><filter
       x="-0.41601458"
       y="-0.15030569"
       width="1.8320292"
       height="1.3006114"
       filterUnits="objectBoundingBox"
       id="b"><feGaussianBlur
         stdDeviation="17.5"
         in="SourceAlpha"
         result="shadowBlurInner1"
         id="feGaussianBlur8916" /><feOffset
         in="shadowBlurInner1"
         result="shadowOffsetInner1"
         id="feOffset8918" /><feComposite
         in="shadowOffsetInner1"
         in2="SourceAlpha"
         operator="arithmetic"
         k2="-1"
         k3="1"
         result="shadowInnerInner1"
         id="feComposite8920" /><feColorMatrix
         values="0 0 0 0 0 0 0 0 0 0 0 0 0 0 0 0 0 0 0.06 0"
         in="shadowInnerInner1"
         id="feColorMatrix8922" /></filter><path
       d="M134.417 148.974l32.039-32.812-32.039-61.007c-3.042-5.791-10.433-6.398-13.443-.59l-17.705 34.109-.53 1.744 31.678 58.556z"
       id="c" /><filter
       x="-0.13183295"
       y="-0.17669426"
       width="1.2793603"
       height="1.2619949"
       filterUnits="objectBoundingBox"
       id="d"><feGaussianBlur
         stdDeviation="3.5"
         in="SourceAlpha"
         result="shadowBlurInner1"
         id="feGaussianBlur8926" /><feOffset
         dx="1"
         dy="-9"
         in="shadowBlurInner1"
         result="shadowOffsetInner1"
         id="feOffset8928" /><feComposite
         in="shadowOffsetInner1"
         in2="SourceAlpha"
         operator="arithmetic"
         k2="-1"
         k3="1"
         result="shadowInnerInner1"
         id="feComposite8930" /><feColorMatrix
         values="0 0 0 0 0 0 0 0 0 0 0 0 0 0 0 0 0 0 0.09 0"
         in="shadowInnerInner1"
         id="feColorMatrix8932" /></filter><path
       d="M1.253 280.732l1.605-3.131 99.353-188.518-44.15-83.475C54.392-1.283 45.074.474 43.87 8.188L1.253 280.732z"
       id="a-8" /><filter
       x="-0.41601458"
       y="-0.15030569"
       width="1.8320292"
       height="1.3006114"
       filterUnits="objectBoundingBox"
       id="b-6"><feGaussianBlur
         stdDeviation="17.5"
         in="SourceAlpha"
         result="shadowBlurInner1"
         id="feGaussianBlur8916-0" /><feOffset
         in="shadowBlurInner1"
         result="shadowOffsetInner1"
         id="feOffset8918-5" /><feComposite
         in="shadowOffsetInner1"
         in2="SourceAlpha"
         operator="arithmetic"
         k2="-1"
         k3="1"
         result="shadowInnerInner1"
         id="feComposite8920-5" /><feColorMatrix
         values="0 0 0 0 0 0 0 0 0 0 0 0 0 0 0 0 0 0 0.06 0"
         in="shadowInnerInner1"
         id="feColorMatrix8922-4" /></filter><path
       d="M134.417 148.974l32.039-32.812-32.039-61.007c-3.042-5.791-10.433-6.398-13.443-.59l-17.705 34.109-.53 1.744 31.678 58.556z"
       id="c-0" /><filter
       x="-0.13183295"
       y="-0.17669426"
       width="1.2793603"
       height="1.2619949"
       filterUnits="objectBoundingBox"
       id="d-1"><feGaussianBlur
         stdDeviation="3.5"
         in="SourceAlpha"
         result="shadowBlurInner1"
         id="feGaussianBlur8926-9" /><feOffset
         dx="1"
         dy="-9"
         in="shadowBlurInner1"
         result="shadowOffsetInner1"
         id="feOffset8928-7" /><feComposite
         in="shadowOffsetInner1"
         in2="SourceAlpha"
         operator="arithmetic"
         k2="-1"
         k3="1"
         result="shadowInnerInner1"
         id="feComposite8930-4" /><feColorMatrix
         values="0 0 0 0 0 0 0 0 0 0 0 0 0 0 0 0 0 0 0.09 0"
         in="shadowInnerInner1"
         id="feColorMatrix8932-8" /></filter></defs><sodipodi:namedview
     id="namedview10"
     pagecolor="#ffffff"
     bordercolor="#000000"
     borderopacity="0.25"
     inkscape:showpageshadow="2"
     inkscape:pageopacity="0.0"
     inkscape:pagecheckerboard="0"
     inkscape:deskcolor="#d1d1d1"
     showgrid="false"
     showguides="true"
     inkscape:zoom="5.62961"
     inkscape:cx="74.161443"
     inkscape:cy="48.138326"
     inkscape:window-width="1920"
     inkscape:window-height="1009"
     inkscape:window-x="-8"
     inkscape:window-y="-8"
     inkscape:window-maximized="1"
     inkscape:current-layer="svg8" /><rect
     style="fill:#27384c;fill-opacity:1;stroke-width:0.0939266"
     id="rect370"
     width="6.9632001"
     height="6.9632001"
     x="-8.7e-05"
     y="0" /><path
     fill="#398ccb"
     d="m 1.305513,2.5976001 c 0,-0.7140001 0.578,-1.2920001 1.292,-1.2920001 h 1.768 c 0.7140001,0 1.2920001,0.578 1.2920001,1.2920001 V 4.3656 c 0,0.714 -0.578,1.292 -1.2920001,1.292 h -1.768 c -0.714,0 -1.292,-0.578 -1.292,-1.292 z"
     id="path2-7"
     style="fill:#007acc;fill-opacity:1;stroke-width:0.034"
     inkscape:transform-center-x="2.6477145"
     inkscape:transform-center-y="0.30922213" /><style
     id="style8834">.st0{fill:#007acc}.st1{fill:#fff}</style><path
     class="st1"
     d="m 2.1205419,3.3152786 v 0.177344 h 0.56576 v 1.61024 h 0.401472 v -1.61024 h 0.56576 v -0.17408 c 0,-0.09792 0,-0.177344 -0.00435,-0.17952 0,-0.00326 -0.344896,-0.00435 -0.763776,-0.00435 l -0.7616,0.00326 v 0.178434 z m 2.542656,-0.181696 c 0.110976,0.026112 0.19584,0.07616 0.272,0.155584 0.040256,0.04352 0.100096,0.11968 0.104448,0.139264 0,0.00653 -0.188224,0.133824 -0.302464,0.204544 -0.00435,0.00326 -0.02176,-0.015232 -0.039168,-0.04352 -0.056576,-0.080512 -0.11424,-0.115328 -0.204544,-0.121856 -0.13056,-0.0087 -0.2176,0.05984 -0.2176,0.17408 0,0.034816 0.00653,0.0544 0.019584,0.082688 0.029376,0.05984 0.083776,0.095744 0.252416,0.169728 0.311168,0.133824 0.44608,0.221952 0.52768,0.34816 0.09248,0.14144 0.113152,0.363392 0.051136,0.529856 -0.069632,0.181696 -0.23936,0.30464 -0.481984,0.344896 -0.07616,0.013056 -0.25024,0.01088 -0.33184,-0.00326 -0.17408,-0.03264 -0.340544,-0.11968 -0.442816,-0.231744 -0.040256,-0.04352 -0.117504,-0.159936 -0.113152,-0.167552 l 0.041344,-0.026112 0.1632,-0.094656 0.122944,-0.071808 0.028288,0.03808 c 0.035904,0.056576 0.116416,0.132736 0.1632,0.158848 0.14144,0.072896 0.330752,0.063104 0.42432,-0.02176 0.040256,-0.036992 0.057664,-0.07616 0.057664,-0.13056 0,-0.050048 -0.00762,-0.072896 -0.03264,-0.110976 -0.034816,-0.047872 -0.104448,-0.08704 -0.300288,-0.17408 -0.225216,-0.095744 -0.32096,-0.156672 -0.410176,-0.25024 -0.051136,-0.056576 -0.09792,-0.144704 -0.11968,-0.2176 -0.01632,-0.063104 -0.02176,-0.2176 -0.00653,-0.279616 0.046784,-0.2176 0.211072,-0.36992 0.44608,-0.41344 0.07616,-0.015232 0.25568,-0.0087 0.330752,0.01088 z"
     id="path8838"
     style="stroke-width:0.01088" /><path
     sodipodi:type="star"
     style="fill:#ffffff;fill-opacity:0;stroke-width:0.1088"
     id="path28331"
     inkscape:flatsided="true"
     sodipodi:sides="5"
     sodipodi:cx="12.967151"
     sodipodi:cy="4.9737015"
     sodipodi:r1="104.70134"
     sodipodi:r2="84.705162"
     sodipodi:arg1="0.46440633"
     sodipodi:arg2="1.0927249"
     inkscape:rounded="0"
     inkscape:randomized="0"
     d="M 106.57932,51.868603 -2.704799,108.49549 -90.330819,22.058783 -35.202556,-87.988925 86.494604,-69.565443 Z"
     transform="matrix(0.1088,0,0,0.1088,-8.7e-5,0)"
     inkscape:transform-center-x="0.52690739"
     inkscape:transform-center-y="0.57441834" /><path
     sodipodi:type="star"
     style="fill:#ffffff;fill-opacity:0;stroke-width:0.1088"
     id="path28337"
     inkscape:flatsided="true"
     sodipodi:sides="4"
     sodipodi:cx="3.7302761"
     sodipodi:cy="9.0592422"
     sodipodi:r1="104.24165"
     sodipodi:r2="73.709976"
     sodipodi:arg1="0.26729823"
     sodipodi:arg2="1.0526964"
     inkscape:rounded="0"
     inkscape:randomized="0"
     d="M 104.2701,36.592234 -23.802715,109.59907 -96.80955,-18.473749 31.263267,-91.480584 Z"
     transform="matrix(0.1088,0,0,0.1088,-8.7e-5,0)" /><style
     id="style8834-0">.st0{fill:#007acc}.st1{fill:#fff}</style></svg>
