<?xml version="1.0" encoding="UTF-8" standalone="no"?>
<svg
   width="64"
   height="64"
   viewBox="0 0 6.963026 6.9632"
   preserveAspectRatio="xMidYMid"
   version="1.1"
   id="svg8"
   sodipodi:docname="unity.svg"
   inkscape:version="1.2.2 (732a01da63, 2022-12-09)"
   xml:space="preserve"
   xmlns:inkscape="http://www.inkscape.org/namespaces/inkscape"
   xmlns:sodipodi="http://sodipodi.sourceforge.net/DTD/sodipodi-0.dtd"
   xmlns="http://www.w3.org/2000/svg"
   xmlns:svg="http://www.w3.org/2000/svg"><defs
     id="defs12"><path
       d="M1.253 280.732l1.605-3.131 99.353-188.518-44.15-83.475C54.392-1.283 45.074.474 43.87 8.188L1.253 280.732z"
       id="a" /><filter
       x="-0.41601458"
       y="-0.15030569"
       width="1.8320292"
       height="1.3006114"
       filterUnits="objectBoundingBox"
       id="b"><feGaussianBlur
         stdDeviation="17.5"
         in="SourceAlpha"
         result="shadowBlurInner1"
         id="feGaussianBlur8916" /><feOffset
         in="shadowBlurInner1"
         result="shadowOffsetInner1"
         id="feOffset8918" /><feComposite
         in="shadowOffsetInner1"
         in2="SourceAlpha"
         operator="arithmetic"
         k2="-1"
         k3="1"
         result="shadowInnerInner1"
         id="feComposite8920" /><feColorMatrix
         values="0 0 0 0 0 0 0 0 0 0 0 0 0 0 0 0 0 0 0.06 0"
         in="shadowInnerInner1"
         id="feColorMatrix8922" /></filter><path
       d="M134.417 148.974l32.039-32.812-32.039-61.007c-3.042-5.791-10.433-6.398-13.443-.59l-17.705 34.109-.53 1.744 31.678 58.556z"
       id="c" /><filter
       x="-0.13183295"
       y="-0.17669426"
       width="1.2793603"
       height="1.2619949"
       filterUnits="objectBoundingBox"
       id="d"><feGaussianBlur
         stdDeviation="3.5"
         in="SourceAlpha"
         result="shadowBlurInner1"
         id="feGaussianBlur8926" /><feOffset
         dx="1"
         dy="-9"
         in="shadowBlurInner1"
         result="shadowOffsetInner1"
         id="feOffset8928" /><feComposite
         in="shadowOffsetInner1"
         in2="SourceAlpha"
         operator="arithmetic"
         k2="-1"
         k3="1"
         result="shadowInnerInner1"
         id="feComposite8930" /><feColorMatrix
         values="0 0 0 0 0 0 0 0 0 0 0 0 0 0 0 0 0 0 0.09 0"
         in="shadowInnerInner1"
         id="feColorMatrix8932" /></filter></defs><sodipodi:namedview
     id="namedview10"
     pagecolor="#ffffff"
     bordercolor="#000000"
     borderopacity="0.25"
     inkscape:showpageshadow="2"
     inkscape:pageopacity="0.0"
     inkscape:pagecheckerboard="0"
     inkscape:deskcolor="#d1d1d1"
     showgrid="false"
     showguides="true"
     inkscape:zoom="5.62961"
     inkscape:cx="73.450914"
     inkscape:cy="28.776416"
     inkscape:window-width="1920"
     inkscape:window-height="1009"
     inkscape:window-x="-8"
     inkscape:window-y="-8"
     inkscape:window-maximized="1"
     inkscape:current-layer="svg8" /> <style
     id="style8834">.st0{fill:#007acc}.st1{fill:#fff}</style><g
     style="fill:#ffffff"
     id="g8861"
     transform="matrix(0.1451102,0,0,0.14510536,0.910634,1.1355974)"><path
       d="m 25.94,25.061 -5.382,-9.06 5.382,-9.064 2.598,9.062 -2.599,9.06 z M 13.946,24.191 7.178,17.474 h 10.759 l 5.38,9.061 -9.372,-2.342 z m 0,-16.382 9.371,-2.342 -5.379,9.061 H 7.177 Z m 17.05,5.108 -3.282,-11.913 -12.251,3.193 -1.812,3.112 -3.68,-0.027 -8.966,8.719 8.967,8.72 3.678,-0.029 1.817,3.112 12.246,3.192 3.283,-11.908 -1.864,-3.087 z"
       id="path8852"
       style="fill:#ffffff" /></g><path
     sodipodi:type="star"
     style="fill:#ffffff;fill-opacity:0;stroke-width:0.1088"
     id="path28331"
     inkscape:flatsided="true"
     sodipodi:sides="5"
     sodipodi:cx="12.967151"
     sodipodi:cy="4.9737015"
     sodipodi:r1="104.70134"
     sodipodi:r2="84.705162"
     sodipodi:arg1="0.46440633"
     sodipodi:arg2="1.0927249"
     inkscape:rounded="0"
     inkscape:randomized="0"
     d="M 106.57932,51.868603 -2.704799,108.49549 -90.330819,22.058783 -35.202556,-87.988925 86.494604,-69.565443 Z"
     transform="matrix(0.1088,0,0,0.1088,-8.7e-5,0)"
     inkscape:transform-center-x="0.52690739"
     inkscape:transform-center-y="0.57441834" /><path
     sodipodi:type="star"
     style="fill:#ffffff;fill-opacity:0;stroke-width:0.1088"
     id="path28337"
     inkscape:flatsided="true"
     sodipodi:sides="4"
     sodipodi:cx="3.7302761"
     sodipodi:cy="9.0592422"
     sodipodi:r1="104.24165"
     sodipodi:r2="73.709976"
     sodipodi:arg1="0.26729823"
     sodipodi:arg2="1.0526964"
     inkscape:rounded="0"
     inkscape:randomized="0"
     d="M 104.2701,36.592234 -23.802715,109.59907 -96.80955,-18.473749 31.263267,-91.480584 Z"
     transform="matrix(0.1088,0,0,0.1088,-8.7e-5,0)" /></svg>
